<?xml version="1.0" encoding="UTF-8"?>
<!DOCTYPE svg PUBLIC "-//W3C//DTD SVG 1.1//EN" "http://www.w3.org/Graphics/SVG/1.1/DTD/svg11.dtd">
<!-- Creator: CorelDRAW 2020 (64-Bit) -->
<svg xmlns="http://www.w3.org/2000/svg" xml:space="preserve" width="270px" height="56px" version="1.1" style="shape-rendering:geometricPrecision; text-rendering:geometricPrecision; image-rendering:optimizeQuality; fill-rule:evenodd; clip-rule:evenodd"
viewBox="0 0 270 55.56"
 xmlns:xlink="http://www.w3.org/1999/xlink"
 xmlns:xodm="http://www.corel.com/coreldraw/odm/2003">
 <defs>
  <style type="text/css">
   <![CDATA[
    .fil3 {fill:#00AE41}
    .fil0 {fill:#029835}
    .fil1 {fill:white}
    .fil2 {fill:white;fill-rule:nonzero}
   ]]>
  </style>
 </defs>
 <g id="Layer_x0020_1">
  <metadata id="CorelCorpID_0Corel-Layer"/>
  <g id="_1943947573664">
   <g>
    <path class="fil0" d="M27.83 0.19c15.34,0 27.78,12.44 27.78,27.78 0,15.35 -12.44,27.78 -27.78,27.78 -15.34,0 -27.78,-12.43 -27.78,-27.78 0,-15.34 12.44,-27.78 27.78,-27.78z"/>
    <path class="fil1" d="M16.46 17.46l23.23 0 0 17.14 -23.23 0 0 -17.14zm15.59 14.38c-0.25,0.15 -0.46,0.05 -0.69,-0.17l-3.62 -3.58 -3.66 3.62c-0.22,0.22 -0.46,0.33 -0.71,0.15 -0.04,-0.03 -0.46,-0.47 -0.48,-0.49 -0.15,-0.25 -0.05,-0.46 0.17,-0.69l3.62 -3.64 -1.26 -1.25c-1.29,0.85 -2.64,0.1 -3.5,-0.98 -0.37,-0.47 -0.86,-1.43 -1.02,-2.32 -0.1,-0.51 -0.09,-0.98 0.03,-1.4 0.16,-0.55 0.32,-0.71 0.87,-0.87 0.4,-0.11 0.87,-0.12 1.39,-0.03 0.89,0.18 1.85,0.65 2.32,1.03 1.07,0.86 1.82,2.21 0.97,3.49l1.25 1.27 1.16 -1.18c-0.02,-0.55 -0.02,-1.17 0.04,-1.45 0.05,-0.22 0.19,-0.36 0.51,-0.66l3.3 -2.92c0.57,-0.6 1,-0.19 0.37,0.39l-2.18 2.06c-0.25,0.23 -0.4,0.45 -0.13,0.73 0.29,0.29 0.46,0.13 0.69,-0.1l2.27 -2.27c0.17,-0.2 0.41,-0.22 0.51,-0.1 0.13,0.1 0.09,0.34 -0.1,0.51l-2.27 2.28c-0.22,0.22 -0.39,0.4 -0.1,0.68 0.28,0.29 0.5,0.13 0.74,-0.12l2.06 -2.19c0.57,-0.61 1,-0.2 0.38,0.38l-2.92 3.29c-0.3,0.33 -0.43,0.47 -0.66,0.52 -0.26,0.06 -0.89,0.07 -1.45,0.03l-1.17 1.16 3.58 3.61c0.23,0.23 0.34,0.46 0.15,0.71 -0.02,0.04 -0.46,0.47 -0.49,0.49l0.03 0.01zm-14.6 -14.99c-0.16,0 -0.21,-0.21 0,-0.39l5.97 -5.55 4.65 0 4.64 0 5.97 5.55c0.21,0.18 0.16,0.39 0,0.39l-10.61 0 -10.62 0zm-0.1 -3.36l0.05 2.46 4.54 -4.23 -2.69 0c-1.16,-0.03 -1.98,0.62 -1.9,1.77l0 0zm21.42 0l-0.05 2.46 -4.54 -4.23 2.69 0c1.16,-0.03 1.98,0.62 1.9,1.77l0 0zm-13.05 -0.64l1.61 0 0.4 0 2.66 0c0.25,0 0.45,0.2 0.45,0.45l0 0.68c0,0.02 0,0.06 -0.01,0.08l-2.66 0 -1.29 0 -1.61 0c0,-0.02 -0.01,-0.06 -0.01,-0.08l0 -0.68c0,-0.25 0.2,-0.45 0.45,-0.45l0.01 0z"/>
    <path class="fil2" d="M14.21 42.36l1.73 0 0.12 0 0 0.11 0 2.73 0 0.08 -0.08 0.02c-0.06,0.03 -0.12,0.04 -0.19,0.07 -0.06,0.02 -0.13,0.03 -0.22,0.06l0 0c-0.16,0.03 -0.34,0.07 -0.54,0.1l0 0c-0.1,0.01 -0.2,0.02 -0.3,0.04 -0.1,0.01 -0.2,0.01 -0.3,0.01l0 0c-0.41,0 -0.77,-0.05 -1.1,-0.16l0 0c-0.16,-0.05 -0.31,-0.13 -0.45,-0.22 -0.13,-0.08 -0.26,-0.18 -0.38,-0.3l0 0c-0.08,-0.07 -0.15,-0.16 -0.23,-0.26 -0.06,-0.09 -0.12,-0.19 -0.18,-0.3 -0.05,-0.11 -0.1,-0.22 -0.15,-0.34 -0.04,-0.11 -0.08,-0.23 -0.1,-0.37 -0.03,-0.13 -0.05,-0.26 -0.07,-0.4 -0.01,-0.14 -0.02,-0.27 -0.02,-0.42l0 0c0,-0.19 0.01,-0.37 0.04,-0.53 0.02,-0.16 0.06,-0.32 0.1,-0.47 0.05,-0.15 0.1,-0.29 0.16,-0.43 0.06,-0.13 0.14,-0.26 0.22,-0.37 0.09,-0.11 0.18,-0.23 0.29,-0.31 0.1,-0.1 0.21,-0.19 0.32,-0.27 0.12,-0.07 0.24,-0.15 0.38,-0.2 0.12,-0.06 0.26,-0.11 0.4,-0.15 0.14,-0.03 0.29,-0.06 0.44,-0.08 0.15,-0.03 0.3,-0.03 0.46,-0.03 0.09,0 0.17,0 0.26,0.01 0.09,0 0.17,0.02 0.25,0.03 0.07,0.01 0.15,0.02 0.22,0.04 0.08,0.01 0.14,0.02 0.2,0.05l0 0c0.07,0.01 0.13,0.03 0.18,0.05 0.06,0.02 0.11,0.03 0.15,0.06l0.07 0.04 -0.02 0.08 -0.21 0.84 -0.04 0.12 -0.13 -0.04c-0.03,-0.02 -0.07,-0.04 -0.12,-0.05 -0.04,-0.02 -0.09,-0.03 -0.13,-0.04l0 0c-0.04,-0.02 -0.08,-0.03 -0.15,-0.04 -0.04,-0.01 -0.11,-0.02 -0.16,-0.02l0 0c-0.06,-0.02 -0.12,-0.02 -0.18,-0.02 -0.07,0 -0.14,0 -0.22,0 -0.11,0 -0.22,0.02 -0.32,0.03 -0.1,0.01 -0.2,0.03 -0.3,0.07 -0.09,0.04 -0.18,0.08 -0.26,0.13 -0.08,0.05 -0.15,0.11 -0.23,0.19 -0.06,0.07 -0.12,0.15 -0.19,0.23 -0.05,0.09 -0.1,0.19 -0.13,0.3l0 0c-0.04,0.11 -0.07,0.23 -0.09,0.36 -0.03,0.14 -0.03,0.28 -0.04,0.43 0,0.15 0.01,0.29 0.03,0.41 0.01,0.13 0.05,0.25 0.08,0.35 0.04,0.11 0.08,0.21 0.13,0.3 0.05,0.09 0.1,0.16 0.17,0.24l0 0c0.07,0.07 0.14,0.13 0.2,0.18l0 0c0.08,0.05 0.15,0.1 0.24,0.14l0 0c0.09,0.04 0.18,0.06 0.28,0.08 0.08,0.01 0.18,0.02 0.3,0.02 0.06,0 0.11,0 0.16,0 0.05,0 0.1,-0.01 0.13,-0.01l0 0c0.04,-0.01 0.08,-0.01 0.11,-0.03l0 0 0 -1.1 -0.65 0 -0.12 0 0 -0.11 0 -0.8 0 -0.11 0.12 0 0.06 -0.02zm4.8 -0.95c0.03,0 0.04,0.01 0.06,0.01l0.08 0.01 0 0.09 0 0.97 0 0.14 -0.12 -0.02c-0.02,0 -0.04,0 -0.05,-0.02 -0.01,0 -0.04,0 -0.05,0 -0.03,0 -0.04,0 -0.07,0 -0.01,0 -0.03,0 -0.07,0 -0.07,0 -0.14,0.02 -0.19,0.03 -0.06,0.01 -0.11,0.04 -0.16,0.06 -0.05,0.03 -0.1,0.06 -0.14,0.11 -0.03,0.05 -0.07,0.1 -0.11,0.17l0 0c-0.02,0.06 -0.05,0.13 -0.07,0.21 -0.02,0.09 -0.03,0.17 -0.03,0.27l0 0 0 1.98 0 0.11 -0.11 0 -1.01 0 -0.11 0 0 -0.11 0 -2.64c0,-0.14 0,-0.25 0,-0.34 0,-0.1 0,-0.21 0,-0.31l0 0c0,-0.1 0,-0.19 -0.02,-0.29 0,-0.08 -0.01,-0.17 -0.01,-0.26l0 -0.11 0.11 0 0.88 0 0.1 0 0.01 0.1 0.02 0.31c0.04,-0.05 0.07,-0.08 0.1,-0.14l0 0c0.05,-0.06 0.12,-0.11 0.18,-0.16 0.06,-0.05 0.12,-0.08 0.2,-0.11l0 0c0.06,-0.04 0.14,-0.05 0.2,-0.07 0.07,-0.02 0.14,-0.03 0.21,-0.03 0.01,0 0.04,0 0.08,0l0 0c0.02,0 0.05,0 0.06,0 0.02,0 0.03,0 0.06,0.01l-0.03 0.03zm3.73 1.37c0.01,0.1 0.01,0.21 0.01,0.33l0 0 0 1.39c0,0.08 0,0.14 0,0.17 0,0.05 0,0.11 0,0.16l0 0c0,0.05 0,0.1 0.01,0.16 0,0.05 0,0.1 0.01,0.15l0 0c0,0.05 0.02,0.09 0.02,0.14 0,0.04 0.01,0.09 0.01,0.12l0.02 0.13 -0.12 0 -0.91 0 -0.09 0 -0.01 -0.09 -0.03 -0.19c-0.05,0.05 -0.1,0.09 -0.15,0.13l0 0c-0.06,0.04 -0.11,0.07 -0.17,0.1 -0.07,0.02 -0.13,0.05 -0.2,0.07 -0.08,0.03 -0.14,0.04 -0.21,0.05 -0.08,0.01 -0.15,0.01 -0.23,0.01l0 0c-0.19,0 -0.36,-0.03 -0.52,-0.09l0 0c-0.08,-0.04 -0.15,-0.08 -0.22,-0.12 -0.06,-0.05 -0.12,-0.1 -0.18,-0.16l0 0c-0.05,-0.06 -0.1,-0.12 -0.15,-0.19 -0.04,-0.06 -0.08,-0.13 -0.1,-0.21l0 0c-0.03,-0.07 -0.05,-0.15 -0.07,-0.24 -0.01,-0.07 -0.02,-0.16 -0.02,-0.25l0 0c0,-0.13 0.01,-0.25 0.04,-0.37 0.02,-0.11 0.07,-0.22 0.12,-0.33l0 0c0.05,-0.1 0.13,-0.18 0.2,-0.27 0.08,-0.07 0.16,-0.15 0.26,-0.21 0.1,-0.06 0.22,-0.11 0.33,-0.16 0.11,-0.05 0.24,-0.09 0.37,-0.12 0.14,-0.02 0.28,-0.05 0.42,-0.06 0.11,-0.01 0.22,-0.01 0.33,-0.02 0,-0.03 0,-0.04 -0.01,-0.05 -0.01,-0.05 -0.02,-0.1 -0.04,-0.14l0 0c-0.01,-0.04 -0.04,-0.08 -0.06,-0.1 -0.03,-0.03 -0.06,-0.06 -0.1,-0.08l0 0c-0.04,-0.02 -0.09,-0.03 -0.15,-0.05 -0.06,-0.01 -0.14,-0.02 -0.22,-0.02 -0.09,0 -0.17,0.01 -0.25,0.01 -0.08,0.01 -0.17,0.03 -0.24,0.05l0 0c-0.08,0.03 -0.15,0.05 -0.21,0.08 -0.07,0.02 -0.13,0.06 -0.19,0.1l-0.13 0.07 -0.03 -0.14 -0.19 -0.66 -0.03 -0.07 0.08 -0.04c0.05,-0.03 0.1,-0.05 0.15,-0.09 0.06,-0.02 0.12,-0.05 0.19,-0.07 0.07,-0.03 0.13,-0.05 0.22,-0.08 0.08,-0.02 0.16,-0.03 0.25,-0.05 0.09,-0.01 0.18,-0.02 0.27,-0.04 0.11,-0.01 0.19,-0.01 0.3,-0.01l0 0c0.15,0 0.3,0.01 0.43,0.04 0.14,0.03 0.25,0.06 0.36,0.1l0 0c0.11,0.05 0.2,0.1 0.29,0.16 0.09,0.07 0.16,0.14 0.22,0.23 0.07,0.07 0.12,0.16 0.17,0.26 0.03,0.09 0.07,0.19 0.1,0.29l0 0c0.02,0.1 0.03,0.2 0.05,0.31l0 -0.04zm-1.22 1.46c0.02,-0.05 0.02,-0.09 0.02,-0.15l0 0 0 -0.44c-0.03,0 -0.06,0 -0.09,0l0 0c-0.06,0 -0.14,0.02 -0.2,0.03l0 0c-0.06,0.01 -0.11,0.02 -0.17,0.04 -0.05,0.01 -0.12,0.04 -0.15,0.06 -0.05,0.02 -0.09,0.05 -0.13,0.07 -0.04,0.03 -0.06,0.07 -0.09,0.1l0 0c-0.02,0.04 -0.03,0.08 -0.06,0.13 -0.01,0.05 -0.02,0.1 -0.02,0.16 0,0.05 0,0.1 0.01,0.14 0.01,0.04 0.02,0.07 0.04,0.1l0 0c0.01,0.02 0.03,0.05 0.06,0.07 0.02,0.03 0.05,0.04 0.07,0.05l0 0c0.07,0.03 0.13,0.04 0.19,0.04 0.03,0 0.05,0 0.08,-0.01 0.02,0 0.06,-0.01 0.08,-0.03l0 0c0.03,-0.01 0.06,-0.02 0.09,-0.03 0.02,-0.02 0.06,-0.04 0.09,-0.07 0.02,-0.02 0.05,-0.03 0.07,-0.07 0.03,-0.03 0.04,-0.06 0.07,-0.1l0 0c0.01,-0.04 0.02,-0.08 0.03,-0.11l0.01 0.02zm3.33 -4.36l0 1.88c0.01,-0.02 0.01,-0.02 0.02,-0.03 0.08,-0.07 0.16,-0.14 0.26,-0.19l0 0c0.1,-0.04 0.2,-0.08 0.33,-0.11 0.11,-0.02 0.23,-0.03 0.36,-0.03l0 0c0.11,0 0.22,0.01 0.32,0.03 0.1,0.03 0.2,0.07 0.3,0.11l0 0c0.09,0.05 0.18,0.12 0.27,0.19 0.07,0.08 0.15,0.15 0.22,0.24l0 0c0.06,0.09 0.13,0.19 0.18,0.3l0 0c0.05,0.11 0.08,0.22 0.12,0.35l0 0c0.04,0.12 0.06,0.25 0.08,0.39 0.01,0.13 0.02,0.27 0.02,0.42l0 0c0,0.15 -0.01,0.27 -0.02,0.41 -0.02,0.13 -0.04,0.25 -0.07,0.36 -0.02,0.12 -0.06,0.23 -0.11,0.33 -0.04,0.1 -0.09,0.2 -0.14,0.29l0 0c-0.05,0.08 -0.11,0.16 -0.17,0.23 -0.06,0.08 -0.13,0.14 -0.2,0.2 -0.08,0.07 -0.15,0.12 -0.23,0.15 -0.07,0.05 -0.15,0.08 -0.23,0.12 -0.09,0.02 -0.17,0.05 -0.25,0.06l0 0c-0.09,0.01 -0.18,0.02 -0.25,0.02l0 0c-0.11,0 -0.23,-0.01 -0.34,-0.03 -0.11,-0.03 -0.21,-0.07 -0.3,-0.12l0 0c-0.1,-0.05 -0.19,-0.12 -0.27,-0.21 -0.03,-0.02 -0.04,-0.05 -0.07,-0.06l-0.02 0.25 -0.01 0.1 -0.1 0 -0.87 0 -0.11 0 0 -0.11c0,-0.05 0,-0.1 0.02,-0.15 0,-0.05 0,-0.12 0.01,-0.17l0 0 0 -0.18 0 -0.2c0,-0.12 0,-0.25 0,-0.4l0 -4.42 0 -0.12 0.11 0 1.01 0 0.11 0 0 0.12 0.02 -0.02zm0.01 3.09c-0.01,0.05 -0.01,0.1 -0.01,0.16l0 0 0 0.75 0 0c0,0.06 0.01,0.12 0.02,0.19 0.01,0.06 0.04,0.11 0.06,0.16l0 0c0.03,0.05 0.05,0.1 0.09,0.14 0.04,0.03 0.08,0.07 0.11,0.1 0.04,0.02 0.09,0.05 0.14,0.06 0.05,0.01 0.1,0.02 0.16,0.02 0.08,0 0.14,-0.01 0.19,-0.03 0.06,-0.03 0.11,-0.05 0.16,-0.09l0 0c0.05,-0.04 0.09,-0.09 0.13,-0.15 0.03,-0.06 0.07,-0.14 0.1,-0.21l0 0c0.02,-0.09 0.05,-0.18 0.06,-0.28 0.01,-0.1 0.02,-0.21 0.02,-0.32 0,-0.08 0,-0.15 -0.01,-0.23 -0.01,-0.07 -0.02,-0.13 -0.04,-0.21 -0.01,-0.06 -0.03,-0.12 -0.05,-0.19 -0.02,-0.05 -0.05,-0.11 -0.07,-0.15 -0.03,-0.05 -0.06,-0.08 -0.09,-0.12 -0.04,-0.04 -0.07,-0.06 -0.11,-0.09l0 0c-0.04,-0.02 -0.09,-0.04 -0.13,-0.05 -0.04,-0.01 -0.1,-0.02 -0.15,-0.02l0 0c-0.03,0 -0.07,0 -0.09,0.01 -0.04,0.01 -0.07,0.02 -0.1,0.04l0 0c-0.04,0.01 -0.07,0.03 -0.1,0.06l0 0c-0.03,0.02 -0.07,0.05 -0.09,0.09 -0.03,0.02 -0.05,0.06 -0.08,0.1 -0.02,0.03 -0.03,0.07 -0.06,0.12 -0.01,0.04 -0.02,0.09 -0.04,0.14l-0.02 0zm4.43 0.34l0 2.09 0 0.12 -0.11 0 -1.01 0 -0.12 0 0 -0.12 0 -5.28 0 -0.11 0.12 0 2.82 0 0.11 0 0 0.11 0 0.85 0 0.11 -0.11 0 -1.7 0 0 1.18 1.57 0 0.12 0 0 0.11 0 0.84 0 0.11 -0.12 0 -1.57 0 0 -0.01zm3.51 -1.79l0 0c0.24,-0.1 0.49,-0.14 0.76,-0.14l0 0c0.14,0 0.27,0.02 0.4,0.04 0.12,0.02 0.25,0.06 0.36,0.11l0 0c0.11,0.05 0.23,0.12 0.31,0.19 0.1,0.08 0.19,0.15 0.28,0.25 0.09,0.09 0.15,0.2 0.21,0.3 0.06,0.11 0.11,0.22 0.15,0.35l0 0c0.04,0.12 0.08,0.26 0.1,0.4 0.03,0.14 0.04,0.29 0.04,0.44 0,0.15 -0.01,0.28 -0.03,0.42 -0.01,0.14 -0.05,0.26 -0.08,0.37l0 0c-0.04,0.12 -0.08,0.23 -0.13,0.33 -0.05,0.1 -0.11,0.2 -0.17,0.27l0 0c-0.07,0.09 -0.13,0.17 -0.2,0.23 -0.08,0.07 -0.15,0.14 -0.24,0.19l0 0c-0.08,0.05 -0.16,0.1 -0.25,0.13 -0.09,0.04 -0.18,0.08 -0.26,0.1l0 0c-0.09,0.03 -0.18,0.04 -0.28,0.05 -0.09,0.02 -0.18,0.02 -0.27,0.02l0 0c-0.14,0 -0.26,-0.02 -0.39,-0.04 -0.12,-0.03 -0.25,-0.07 -0.36,-0.1l0 0c-0.11,-0.05 -0.23,-0.1 -0.33,-0.18 -0.1,-0.07 -0.18,-0.15 -0.27,-0.23 -0.09,-0.09 -0.16,-0.19 -0.23,-0.3 -0.06,-0.12 -0.12,-0.23 -0.16,-0.37l0 0c-0.05,-0.12 -0.07,-0.26 -0.1,-0.41l0 0c-0.02,-0.14 -0.04,-0.3 -0.04,-0.46 0,-0.16 0.02,-0.32 0.04,-0.47 0.03,-0.15 0.06,-0.29 0.11,-0.43 0.06,-0.12 0.1,-0.25 0.18,-0.36 0.06,-0.11 0.15,-0.21 0.24,-0.31 0.08,-0.09 0.18,-0.18 0.28,-0.24l0 0c0.1,-0.08 0.22,-0.13 0.33,-0.17l0 0.02zm1.32 2.41c0.03,-0.14 0.05,-0.3 0.05,-0.46 0,-0.08 0,-0.15 -0.01,-0.21 -0.01,-0.08 -0.01,-0.14 -0.03,-0.22 -0.01,-0.06 -0.02,-0.13 -0.05,-0.2 -0.02,-0.06 -0.04,-0.12 -0.07,-0.17l0 0c-0.03,-0.05 -0.05,-0.1 -0.09,-0.14 -0.03,-0.04 -0.06,-0.07 -0.11,-0.1l0 0c-0.04,-0.02 -0.07,-0.05 -0.13,-0.06 -0.04,-0.01 -0.09,-0.03 -0.15,-0.03 -0.04,0 -0.08,0 -0.13,0.02 -0.04,0.01 -0.08,0.02 -0.11,0.03 -0.04,0.03 -0.07,0.05 -0.1,0.08 -0.03,0.02 -0.07,0.06 -0.09,0.09l0 0c-0.03,0.03 -0.05,0.07 -0.08,0.12 -0.02,0.04 -0.03,0.09 -0.06,0.14l0 0c-0.01,0.05 -0.04,0.1 -0.05,0.15 -0.01,0.05 -0.02,0.1 -0.02,0.16 -0.02,0.06 -0.02,0.11 -0.02,0.18l0 0c0,0.05 0,0.11 0,0.17 0,0.09 0,0.16 0.02,0.24 0.01,0.07 0.02,0.15 0.03,0.22l0 0c0.02,0.08 0.04,0.14 0.07,0.2 0.02,0.06 0.05,0.11 0.07,0.16l0 0c0.03,0.05 0.06,0.1 0.1,0.14 0.04,0.04 0.08,0.08 0.11,0.1l0 0c0.04,0.03 0.08,0.05 0.13,0.06l0 0c0.05,0.02 0.09,0.03 0.13,0.03 0.06,0 0.11,-0.01 0.14,-0.03 0.04,-0.01 0.09,-0.03 0.13,-0.06l0 0c0.03,-0.02 0.07,-0.06 0.11,-0.1 0.04,-0.04 0.06,-0.09 0.09,-0.14l0 0c0.02,-0.05 0.05,-0.11 0.07,-0.17 0.03,-0.06 0.04,-0.13 0.05,-0.2zm2.92 -2.41l0 0c0.24,-0.1 0.49,-0.14 0.77,-0.14l0 0c0.13,0 0.27,0.02 0.39,0.04 0.13,0.02 0.25,0.06 0.37,0.11l0 0c0.11,0.05 0.22,0.12 0.31,0.19 0.1,0.08 0.19,0.15 0.27,0.25 0.09,0.09 0.15,0.2 0.22,0.3 0.06,0.11 0.11,0.22 0.15,0.35l0 0c0.03,0.12 0.07,0.26 0.1,0.4 0.02,0.14 0.03,0.29 0.03,0.44 0,0.15 -0.01,0.28 -0.02,0.42 -0.01,0.14 -0.05,0.26 -0.09,0.37l0 0c-0.04,0.12 -0.07,0.23 -0.12,0.33 -0.05,0.1 -0.12,0.2 -0.18,0.27l0 0c-0.06,0.09 -0.12,0.17 -0.2,0.23 -0.07,0.07 -0.15,0.14 -0.24,0.19l0 0c-0.07,0.05 -0.16,0.1 -0.25,0.13 -0.08,0.04 -0.17,0.08 -0.26,0.1l0 0c-0.09,0.03 -0.17,0.04 -0.27,0.05 -0.09,0.02 -0.19,0.02 -0.28,0.02l0 0c-0.13,0 -0.26,-0.02 -0.38,-0.04 -0.13,-0.03 -0.25,-0.07 -0.37,-0.1l0 0c-0.11,-0.05 -0.22,-0.1 -0.32,-0.18 -0.1,-0.07 -0.19,-0.15 -0.28,-0.23 -0.08,-0.09 -0.16,-0.19 -0.22,-0.3 -0.06,-0.12 -0.13,-0.23 -0.16,-0.37l0 0c-0.05,-0.12 -0.08,-0.26 -0.1,-0.41l0 0c-0.03,-0.14 -0.04,-0.3 -0.04,-0.46 0,-0.16 0.01,-0.32 0.04,-0.47 0.02,-0.15 0.06,-0.29 0.11,-0.43 0.05,-0.12 0.1,-0.25 0.17,-0.36 0.07,-0.11 0.15,-0.21 0.24,-0.31 0.09,-0.09 0.19,-0.18 0.29,-0.24l0 0c0.1,-0.08 0.21,-0.13 0.32,-0.17l0 0.02zm1.33 2.41c0.02,-0.14 0.05,-0.3 0.05,-0.46 0,-0.08 0,-0.15 -0.02,-0.21 -0.01,-0.08 -0.01,-0.14 -0.02,-0.22 -0.01,-0.06 -0.03,-0.13 -0.05,-0.2 -0.03,-0.06 -0.05,-0.12 -0.07,-0.17l0 0c-0.03,-0.05 -0.06,-0.1 -0.09,-0.14 -0.04,-0.04 -0.06,-0.07 -0.12,-0.1l0 0c-0.03,-0.02 -0.07,-0.05 -0.12,-0.06 -0.05,-0.01 -0.1,-0.03 -0.15,-0.03 -0.05,0 -0.09,0 -0.14,0.02 -0.04,0.01 -0.07,0.02 -0.11,0.03 -0.04,0.03 -0.06,0.05 -0.1,0.08 -0.02,0.02 -0.06,0.06 -0.09,0.09l0 0c-0.02,0.03 -0.05,0.07 -0.07,0.12 -0.03,0.04 -0.04,0.09 -0.06,0.14l0 0c-0.02,0.05 -0.04,0.1 -0.05,0.15 -0.02,0.05 -0.03,0.1 -0.03,0.16 -0.01,0.06 -0.01,0.11 -0.01,0.18l0 0c0,0.05 0,0.11 0,0.17 0,0.09 0,0.16 0.01,0.24 0.01,0.07 0.03,0.15 0.04,0.22l0 0c0.01,0.08 0.04,0.14 0.06,0.2 0.03,0.06 0.05,0.11 0.08,0.16l0 0c0.02,0.05 0.06,0.1 0.1,0.14 0.03,0.04 0.07,0.08 0.11,0.1l0 0c0.04,0.03 0.07,0.05 0.12,0.06l0 0c0.05,0.02 0.09,0.03 0.14,0.03 0.05,0 0.1,-0.01 0.14,-0.03 0.04,-0.01 0.08,-0.03 0.12,-0.06l0 0c0.04,-0.02 0.08,-0.06 0.11,-0.1 0.04,-0.04 0.07,-0.09 0.09,-0.14l0 0c0.03,-0.05 0.05,-0.11 0.08,-0.17 0.02,-0.06 0.03,-0.13 0.05,-0.2zm4.37 -4.17l1.01 0 0.11 0 0 0.11 0 4.43c0,0.09 0,0.17 0,0.2 0,0.07 0,0.13 0,0.2l0 0c0,0.07 0,0.13 0,0.19 0,0.06 0,0.13 0,0.19l0 0c0,0.11 0.01,0.22 0.01,0.32l0 0.12 -0.11 0 -0.89 0 -0.1 0 -0.01 -0.1 -0.02 -0.27c-0.04,0.05 -0.09,0.09 -0.13,0.13l0 0c-0.06,0.05 -0.12,0.1 -0.18,0.14 -0.07,0.03 -0.14,0.07 -0.22,0.1 -0.07,0.02 -0.15,0.05 -0.23,0.06 -0.08,0.01 -0.17,0.02 -0.25,0.02l0 0c-0.12,0 -0.23,-0.01 -0.34,-0.03 -0.11,-0.03 -0.21,-0.07 -0.31,-0.12l0 0c-0.1,-0.05 -0.19,-0.11 -0.28,-0.18 -0.09,-0.08 -0.16,-0.15 -0.24,-0.25l0 0c-0.07,-0.09 -0.13,-0.19 -0.18,-0.3 -0.05,-0.12 -0.1,-0.23 -0.14,-0.35l0 0c-0.04,-0.13 -0.06,-0.25 -0.09,-0.4 -0.02,-0.14 -0.02,-0.28 -0.02,-0.44l0 0c0,-0.17 0.01,-0.32 0.03,-0.47 0.03,-0.15 0.06,-0.29 0.1,-0.43l0 0c0.04,-0.12 0.09,-0.25 0.15,-0.36 0.07,-0.11 0.13,-0.21 0.2,-0.31l0 0c0.08,-0.09 0.17,-0.18 0.25,-0.24 0.09,-0.08 0.19,-0.13 0.29,-0.18l0 0c0.1,-0.04 0.2,-0.08 0.31,-0.11 0.12,-0.02 0.22,-0.03 0.33,-0.03l0 0c0.07,0 0.16,0 0.22,0.01 0.08,0.01 0.14,0.02 0.21,0.05l0 0c0.07,0.02 0.13,0.05 0.19,0.07 0.06,0.03 0.11,0.06 0.17,0.1l0 0c0.01,0.01 0.02,0.03 0.03,0.04l0 -1.79 0 -0.11 0.11 0 0.02 -0.01zm-0.13 4.26c0.01,-0.07 0.01,-0.13 0.01,-0.19l0 0 0 -0.7 0 0c0,-0.06 0,-0.12 -0.01,-0.17 -0.01,-0.05 -0.02,-0.1 -0.03,-0.15l0 0c-0.02,-0.05 -0.04,-0.09 -0.07,-0.13 -0.02,-0.04 -0.05,-0.07 -0.07,-0.1l0 0c-0.03,-0.02 -0.05,-0.05 -0.09,-0.07 -0.03,-0.03 -0.06,-0.04 -0.09,-0.05 -0.06,-0.03 -0.13,-0.04 -0.2,-0.04l0 0c-0.05,0 -0.11,0.01 -0.15,0.02 -0.05,0.02 -0.08,0.04 -0.12,0.07l0 0c-0.04,0.02 -0.08,0.06 -0.11,0.08 -0.04,0.04 -0.07,0.08 -0.1,0.13l0 0c-0.03,0.05 -0.05,0.1 -0.08,0.16 -0.02,0.06 -0.04,0.13 -0.06,0.19l0 0c-0.01,0.06 -0.03,0.14 -0.04,0.21 -0.01,0.08 -0.01,0.15 -0.01,0.24 0,0.11 0.01,0.21 0.02,0.31 0.02,0.1 0.04,0.19 0.07,0.26l0 0c0.02,0.08 0.06,0.15 0.1,0.2 0.03,0.06 0.07,0.11 0.12,0.15l0 0c0.05,0.04 0.1,0.08 0.15,0.09l0 0c0.06,0.02 0.13,0.02 0.19,0.02l0 0c0.03,0 0.06,0 0.1,-0.01 0.04,0 0.06,-0.01 0.1,-0.02l0 0c0.04,-0.02 0.06,-0.03 0.1,-0.05 0.02,-0.03 0.06,-0.04 0.09,-0.08l0 0c0.02,-0.02 0.04,-0.06 0.07,-0.09 0.02,-0.03 0.05,-0.07 0.06,-0.12l0 0c0.02,-0.05 0.04,-0.1 0.04,-0.15l0.01 -0.01z"/>
   </g>
   <g>
    <path class="fil3" d="M249.7 34.17c0,-2.95 -0.22,-6.09 2.7,-8.11 3.92,-2.69 10.16,-0.52 10.16,4.82 0,2.32 0.22,4.08 -0.56,6.06 -0.26,0.67 -0.75,1.45 -1.16,1.9 -1.94,1.98 -5.16,2.51 -7.55,1.31 -0.67,-0.34 -1.38,-0.75 -1.87,-1.35 -0.89,-1.12 -1.75,-2.57 -1.75,-4.63l0.03 0zm12.86 -12.33c-0.41,-0.26 -0.56,-0.56 -1.08,-0.9 -0.45,-0.29 -0.83,-0.48 -1.35,-0.71 -2.77,-1.3 -6.8,-0.82 -9.53,0.3 -4,1.65 -6.57,6.09 -6.57,10.8 0,3.03 -0.19,5.23 1,8.04 2.77,6.54 10.35,8.37 16.26,6.01 0.75,-0.3 1.31,-0.6 1.87,-1.01 1.27,-0.86 1.45,-1.12 2.35,-2.09 0.26,-0.26 0.37,-0.52 0.6,-0.82 1.27,-1.91 2.09,-4.34 2.09,-6.84l0 -24.47 -5.64 0 0 11.73 0 -0.04z"/>
    <path class="fil3" d="M202.44 40.86c-0.98,0 -1.98,-0.26 -2.73,-0.56 -2.24,-0.9 -3.85,-3.51 -3.85,-6.13 0,-2.73 -0.22,-5.27 1.76,-7.28 4.14,-4.11 11.28,-1.61 11.28,4.89 0,2.43 0.04,5.12 -1.72,6.91 -0.56,0.56 -1.16,1.12 -1.9,1.46 -0.71,0.3 -1.87,0.67 -2.84,0.67l0 0.04zm-12.22 -9.68c0,4.04 -0.19,6.47 1.98,10.02 2.99,4.89 10.35,6.31 15.47,4.03 0.74,-0.33 1.34,-0.63 1.98,-1.08 0.33,-0.26 0.56,-0.41 0.86,-0.67 1.42,-1.24 2.5,-2.66 3.14,-4.56 1.34,-3.81 1.38,-10.61 -0.9,-14.09 -0.49,-0.78 -1.31,-1.87 -1.98,-2.43 -0.34,-0.26 -0.41,-0.41 -0.79,-0.67 -3.1,-2.09 -4.85,-2.28 -8.63,-2.28 -2.95,0 -6.05,1.46 -7.99,3.4 -1.98,2.02 -3.22,5.38 -3.22,8.3l0.08 0.03z"/>
    <path class="fil3" d="M229.15 40.86c-2.65,0 -5.04,-1.53 -5.98,-3.89 -0.78,-1.94 -0.59,-3.25 -0.59,-5.34 0,-8.82 13.04,-9.04 13.04,0.23 0,1.75 0.11,3.13 -0.49,4.78 -0.26,0.71 -0.78,1.68 -1.23,2.13 -1.27,1.31 -2.8,2.13 -4.75,2.13l0 -0.04zm-12.22 -9.68l0 3.18c0,6.76 4.94,11.92 11.92,11.92 2.17,0 3.93,-0.3 5.53,-1.05 1.16,-0.52 1.91,-0.93 2.84,-1.75 3.7,-3.22 4.04,-7.03 4.04,-11.7 0,-2.95 -0.71,-5.6 -2.35,-7.85 -1.12,-1.53 -2.36,-2.46 -4.08,-3.32 -3.14,-1.57 -8.18,-1.57 -11.36,-0.11 -2.65,1.23 -4.56,3.17 -5.64,5.86 -0.52,1.27 -0.97,3.07 -0.97,4.79l0.07 0.03z"/>
    <path class="fil3" d="M169.33 14.33l0 31.16c0,0.23 0.07,0.3 0.3,0.3l5.23 0c0.22,0 0.3,-0.07 0.3,-0.3l0 -12.03 11.62 0 0 -5.45 -11.62 0 0 -8.52 12.85 0 0 -5.16c0,-0.22 -0.07,-0.3 -0.3,-0.3l-18.08 0c-0.23,0 -0.3,0.08 -0.3,0.3l0 0z"/>
    <path class="fil3" d="M68.7 29.65c0,4.04 0.12,5.72 1.98,9.23 0.23,0.41 0.45,0.79 0.71,1.16 0.53,0.78 1.05,1.34 1.72,1.98 1.46,1.46 2.24,2.05 4.22,3.06 4.19,2.13 10.43,1.87 14.46,-0.33 0.87,-0.45 1.61,-0.86 2.36,-1.54 0.3,-0.26 1.46,-1.15 1.46,-1.6l0 -12.74 -12.33 0 0 2.46 9.86 0 0 9.46c0,0.44 -1.12,1.15 -1.49,1.38 -0.68,0.41 -1.2,0.71 -1.99,1.01 -5.11,1.87 -10.98,1.08 -14.9,-2.8 -1.8,-1.76 -3.63,-5.12 -3.63,-8.6 0,-2.61 0.08,-4.78 1.42,-7.02l2.77 -3.59c3.62,-2.92 5.79,-3.7 10.61,-3.7 1.31,0 2.58,0.19 3.66,0.45l2.28 0.82c0.22,0.11 0.49,0.26 0.75,0.37l0 -2.76c-1.09,-0.26 -0.94,-0.52 -3.48,-0.94 -3.51,-0.59 -7.51,-0.33 -10.65,1.01 -1.57,0.68 -3.55,1.8 -4.7,2.99 -0.83,0.86 -0.83,0.64 -1.87,1.95 -0.34,0.41 -0.53,0.67 -0.83,1.12 -0.29,0.45 -0.44,0.74 -0.74,1.23 -0.9,1.49 -1.68,4.26 -1.68,6.02l0.03 -0.08z"/>
    <path class="fil3" d="M113.32 31c0,3.13 -0.26,5.26 1.16,8.07 0.48,1.01 1.6,2.58 2.42,3.32 2.88,2.51 6.02,3.96 10.17,3.18 0.71,-0.15 1.23,-0.41 1.64,-0.49l0 -2.46c-2.58,0.59 -4,1.34 -7.28,-0.12 -0.6,-0.26 -0.94,-0.44 -1.46,-0.82 -0.82,-0.56 -1.72,-1.38 -2.32,-2.2 -2.2,-2.95 -1.87,-5.01 -1.87,-8.52 0,-1.12 0.56,-2.62 0.94,-3.4 1.23,-2.69 4.67,-5.23 7.92,-5.23 2.77,0 4.56,0.48 6.61,2.24 2.02,1.72 3.25,4.15 3.25,6.91l0 14.28 2.47 0 0 -14.39c0,-1.61 -0.52,-3.44 -1.08,-4.56 -0.97,-1.94 -0.9,-1.68 -2.02,-3.03 -1.76,-2.16 -5.34,-3.92 -8.22,-3.92l-1.05 0c-5.94,0 -11.32,5.75 -11.32,11.1l0.04 0.04z"/>
    <path class="fil3" d="M138.5 33.76c0.34,-0.22 2.51,-3.03 2.92,-3.47l3.02 -3.33c2.77,-2.76 4.6,-4.6 8.97,-4.6 2.28,0 4.56,1.2 6.09,2.73l0.12 0.11c2.72,2.96 2.72,4.94 2.72,8.79 0,8.85 -11.66,12.96 -17,5.26 -0.37,-0.56 -1.12,-1.9 -1.19,-2.72 -0.3,0.07 -0.3,0.22 -0.49,0.44 -0.19,0.19 -0.26,0.3 -0.41,0.53 -0.11,0.11 -0.82,0.97 -0.82,1.01 0,1.53 2.28,4.14 3.73,5.12 8.45,5.71 18.69,-0.64 18.69,-9.87l0 -2.05c0,-3.55 -1.57,-6.36 -3.37,-8.15 -1.08,-1.08 -1.83,-1.76 -3.29,-2.47 -3.66,-1.87 -8.1,-1.57 -11.5,0.79l-1.54 1.12c-1.3,1.01 -2.39,2.17 -3.51,3.36 -0.19,0.23 -0.19,0.26 -0.37,0.45 -0.19,0.23 -0.26,0.26 -0.45,0.49 -0.26,0.33 -0.52,0.63 -0.78,0.97 -2.1,2.35 -1.54,2.02 -1.54,5.49l0 0z"/>
    <path class="fil3" d="M72.81 30.4l0 0.82c0,6.09 5.01,11.21 11.1,11.21 2.06,0 4.48,-0.37 6.17,-1.23 0.3,-0.15 1.34,-0.75 1.34,-1.12l0 -7.1 -8.11 0 0 2.46 5.87 0 0 3.59c-1.91,0.45 -2.28,0.93 -5.16,0.93 -4.93,0 -8.74,-3.88 -8.74,-8.85l0 -0.94c0,-2.57 1.57,-4.93 3.03,-6.12 3.06,-2.58 7.1,-3.03 11.09,-2.02 0.6,0.15 1.27,0.41 1.8,0.67 0.56,0.3 1.01,0.67 1.46,1.01l0 -2.99c-0.49,-0.11 -1.05,-0.49 -1.61,-0.67 -4.22,-1.46 -9.01,-1.42 -12.82,0.93l-1.72 1.27c-1.9,1.76 -3.73,4.49 -3.73,8.11l0.03 0.04z"/>
    <path class="fil3" d="M138.5 40.45c0.15,-0.11 4.86,-6.05 5.98,-7.29 1.27,-1.34 2.43,-2.84 3.81,-4.22 1.83,-1.83 4,-3.36 6.95,-1.98 2.54,1.2 2.99,3.36 2.99,6.24 0,1.94 -0.41,2.95 -1.27,4.07 -1.01,1.31 -2.5,1.8 -4.26,1.8 -2.76,0 -5.23,-3.81 -5.23,-6.69 -0.41,0.26 -1.57,2.05 -2.05,2.35 0.37,0.79 0.44,2.54 2.39,4.49 1.16,1.15 2.87,2.28 4.71,2.28 1.53,0 2.42,-0.04 3.81,-0.71 2.28,-1.12 4.29,-3.78 4.29,-6.39 0,-3.63 0.38,-5.5 -2.39,-8.3 -1.08,-1.08 -3.1,-2.17 -5.23,-2.17 -2.09,0 -4.22,1.35 -5.38,2.36 -1.27,1.12 -4.26,4.44 -5.57,5.94 -0.48,0.6 -3.32,3.89 -3.51,4.3 -0.22,0.56 -0.07,3.02 -0.07,3.84l0.03 0.08z"/>
    <path class="fil3" d="M117.43 31.63c0,2.95 -0.19,5.23 2.16,7.59 2.1,2.09 4.86,2.95 7.7,2.09 0.86,-0.26 1.09,-0.52 1.42,-0.64l0 -2.69c-4.18,2.81 -8.85,0.08 -8.85,-3.92l0 -2.47c0,-4.18 5.3,-7.17 9,-3.47 0.94,0.93 1.46,2.17 1.46,4l0 13.67 2.47 0 0 -13.67c0,-5.94 -5.42,-9.68 -10.8,-7.44 -0.71,0.3 -1.72,1.01 -2.28,1.53 -0.19,0.19 -0.26,0.3 -0.41,0.53 -1.16,1.38 -1.91,2.91 -1.91,4.85l0.04 0.04z"/>
    <path class="fil3" d="M98.18 31.41l0 14.38 2.47 0 0 -14.38c0,-3.37 1.98,-6.92 5.08,-8.19 2.43,-1 5.35,-1.27 7.85,-0.18 0.34,0.15 0.52,0.3 0.86,0.37 0.15,-0.6 1.38,-1.38 1.53,-1.94 -0.19,-0.04 -1.31,-0.68 -2.35,-1.05 -1.5,-0.52 -2.62,-0.48 -4.23,-0.48 -3.58,0 -7.21,2.01 -9.15,4.93 -1.2,1.83 -2.06,4.11 -2.06,6.57l0 -0.03z"/>
    <path class="fil3" d="M102.29 32.34l0 13.15c0,0.53 1.01,0.3 2.47,0.3l0 -13.56c0,-4 2.62,-6.24 6.46,-5.64 0.38,0.07 0.75,0.26 1.16,0.3 0.19,-0.38 0.3,-0.68 0.49,-1.05 0.15,-0.34 0.48,-0.82 0.56,-1.08 -0.34,-0.08 -0.45,-0.19 -0.75,-0.3 -2.84,-1.05 -6.24,-0.12 -8.29,1.98 -1.46,1.49 -2.1,3.7 -2.1,5.94l0 -0.04z"/>
    <path class="fil3" d="M140.97 24.64c0.37,-0.26 1.16,-1.45 2.17,-2.24 0.15,-0.11 0.29,-0.15 0.29,-0.41l0 -12.55 -2.46 0 0 15.2 0 0z"/>
    <path class="fil3" d="M145.08 21.13c0.67,-0.33 1.12,-0.86 1.87,-1.31 0.22,-0.15 0.6,-0.26 0.6,-0.56l0 -9.86 -2.47 0 0 11.73z"/>
   </g>
  </g>
 </g>
</svg>
