<?xml version="1.0" encoding="UTF-8"?>
<!DOCTYPE svg PUBLIC "-//W3C//DTD SVG 1.1//EN" "http://www.w3.org/Graphics/SVG/1.1/DTD/svg11.dtd">
<!-- Creator: CorelDRAW 2020 (64-Bit) -->
<svg xmlns="http://www.w3.org/2000/svg" xml:space="preserve" width="631px" height="720px" version="1.1" style="shape-rendering:geometricPrecision; text-rendering:geometricPrecision; image-rendering:optimizeQuality; fill-rule:evenodd; clip-rule:evenodd"
viewBox="0 0 631 720.37"
 xmlns:xlink="http://www.w3.org/1999/xlink"
 xmlns:xodm="http://www.corel.com/coreldraw/odm/2003">
 <defs>
  <style type="text/css">
   <![CDATA[
    .fil3 {fill:#00AE41}
    .fil0 {fill:#029835}
    .fil1 {fill:white}
    .fil2 {fill:white;fill-rule:nonzero}
   ]]>
  </style>
 </defs>
 <g id="Layer_x0020_1">
  <metadata id="CorelCorpID_0Corel-Layer"/>
  <g id="_1373507265296">
   <path class="fil0" d="M314.96 0c145.22,0 262.91,117.69 262.91,262.92 0,145.22 -117.69,262.92 -262.91,262.92 -145.23,0 -262.92,-117.7 -262.92,-262.92 0,-145.23 117.69,-262.92 262.92,-262.92z"/>
   <path class="fil1" d="M207.31 163.42l219.9 0 0 162.25 -219.9 0 0 -162.25zm147.59 136.13c-2.37,1.42 -4.38,0.47 -6.5,-1.65l-34.27 -33.92 -34.62 34.27c-2.13,2.13 -4.38,3.19 -6.74,1.42 -0.35,-0.24 -4.37,-4.37 -4.61,-4.61 -1.42,-2.36 -0.47,-4.37 1.66,-6.5l34.26 -34.5 -11.93 -11.82c-12.17,8.03 -24.93,0.94 -33.09,-9.22 -3.54,-4.49 -8.15,-13.59 -9.69,-21.98 -0.94,-4.84 -0.82,-9.33 0.24,-13.23 1.54,-5.2 3.07,-6.74 8.27,-8.27 3.78,-1.07 8.27,-1.19 13.12,-0.24 8.51,1.65 17.6,6.14 21.98,9.69 10.16,8.15 17.25,20.91 9.21,33.09l11.82 11.93 10.99 -11.11c-0.24,-5.2 -0.24,-11.1 0.36,-13.7 0.47,-2.13 1.77,-3.43 4.84,-6.27l31.2 -27.65c5.43,-5.67 9.45,-1.77 3.54,3.67l-20.68 19.49c-2.36,2.25 -3.78,4.26 -1.18,6.98 2.72,2.71 4.37,1.18 6.5,-0.95l21.51 -21.51c1.65,-1.89 3.9,-2.12 4.84,-0.94 1.18,0.94 0.83,3.19 -0.94,4.84l-21.51 21.51c-2.13,2.13 -3.66,3.78 -0.95,6.5 2.6,2.72 4.73,1.18 6.98,-1.18l19.49 -20.68c5.44,-5.79 9.46,-1.89 3.67,3.54l-27.65 31.2c-2.84,3.07 -4.14,4.37 -6.27,4.84 -2.48,0.6 -8.39,0.71 -13.7,0.36l-11.11 10.99 33.91 34.15c2.13,2.13 3.19,4.37 1.42,6.73 -0.24,0.36 -4.37,4.38 -4.61,4.61l0.24 0.12zm-138.14 -141.92c-1.53,0 -2.01,-2 0,-3.66l56.48 -52.58 43.96 0 43.96 0 56.48 52.58c2.01,1.66 1.54,3.66 0,3.66l-100.44 0 -100.44 0zm-0.94 -31.78l0.47 23.28 42.89 -40.06 -25.4 0c-10.99,-0.24 -18.79,5.91 -17.96,16.78l0 0zm202.65 0l-0.47 23.28 -42.9 -40.06 25.41 0c10.99,-0.24 18.79,5.91 17.96,16.78l0 0zm-123.48 -6.03l15.24 0 3.78 0 25.17 0c2.36,0 4.25,1.89 4.25,4.26l0 6.38c0,0.23 0,0.59 -0.11,0.82l-25.17 0 -12.17 0 -15.25 0c0,-0.23 -0.12,-0.59 -0.12,-0.82l0 -6.38c0,-2.37 1.9,-4.26 4.26,-4.26l0.12 0z"/>
   <path class="fil2" d="M186.04 399.05l16.42 0 1.07 0 0 1.06 0 25.88 0 0.71 -0.71 0.23c-0.59,0.24 -1.18,0.36 -1.78,0.59 -0.59,0.24 -1.3,0.36 -2.12,0.6l0 0c-1.54,0.35 -3.19,0.7 -5.08,0.94l0 0c-0.95,0.12 -1.89,0.24 -2.84,0.36 -0.95,0.11 -1.89,0.11 -2.84,0.11l0 0c-3.9,0 -7.32,-0.47 -10.39,-1.53l0 0c-1.54,-0.48 -2.96,-1.18 -4.26,-2.01 -1.3,-0.83 -2.48,-1.77 -3.66,-2.84l0 0c-0.71,-0.71 -1.42,-1.53 -2.13,-2.48 -0.59,-0.83 -1.18,-1.77 -1.77,-2.84 -0.47,-1.06 -0.95,-2.12 -1.42,-3.19 -0.35,-1.06 -0.71,-2.24 -0.95,-3.54 -0.23,-1.18 -0.47,-2.48 -0.59,-3.78 -0.11,-1.3 -0.23,-2.6 -0.23,-4.02l0 0c0,-1.77 0.12,-3.43 0.35,-4.96 0.24,-1.54 0.59,-3.08 0.95,-4.49 0.47,-1.42 0.94,-2.72 1.53,-4.02 0.59,-1.3 1.3,-2.48 2.13,-3.55 0.83,-1.06 1.66,-2.12 2.72,-2.95 0.94,-0.95 2.01,-1.77 3.07,-2.48 1.06,-0.71 2.25,-1.42 3.55,-1.89 1.18,-0.59 2.48,-1.07 3.78,-1.42 1.3,-0.36 2.72,-0.59 4.13,-0.83 1.42,-0.24 2.84,-0.24 4.38,-0.24 0.82,0 1.65,0 2.48,0.12 0.82,0 1.65,0.12 2.36,0.24 0.71,0.12 1.42,0.24 2.13,0.35 0.71,0.12 1.3,0.24 1.89,0.48l0 0c0.59,0.11 1.18,0.35 1.65,0.47 0.59,0.24 1.07,0.35 1.42,0.59l0.71 0.35 -0.24 0.83 -2.01 7.92 -0.35 1.18 -1.18 -0.47c-0.36,-0.12 -0.71,-0.36 -1.18,-0.47 -0.36,-0.12 -0.83,-0.24 -1.18,-0.36l0 0c-0.48,-0.12 -0.83,-0.24 -1.42,-0.35 -0.48,-0.12 -1.07,-0.24 -1.54,-0.24l0 0c-0.59,-0.12 -1.18,-0.12 -1.77,-0.12 -0.59,0 -1.3,0 -2.01,0 -1.06,0 -2.13,0.12 -3.07,0.24 -0.95,0.12 -1.89,0.35 -2.84,0.71 -0.83,0.35 -1.65,0.71 -2.48,1.18 -0.71,0.47 -1.42,1.06 -2.13,1.77 -0.59,0.71 -1.18,1.42 -1.77,2.25 -0.47,0.82 -0.95,1.77 -1.3,2.83l0 0c-0.35,1.07 -0.59,2.13 -0.83,3.43 -0.23,1.3 -0.23,2.6 -0.35,4.02 0,1.42 0.12,2.72 0.23,3.9 0.12,1.18 0.48,2.36 0.83,3.31 0.36,1.06 0.71,2.01 1.18,2.83 0.48,0.83 0.95,1.54 1.66,2.25l0 0c0.59,0.71 1.3,1.3 1.89,1.77l0 0c0.71,0.47 1.42,0.95 2.24,1.3l0 0c0.83,0.35 1.66,0.59 2.6,0.71 0.83,0.12 1.78,0.24 2.84,0.24 0.59,0 1.06,0 1.54,0 0.47,0 0.94,-0.12 1.3,-0.12l0 0c0.35,-0.12 0.7,-0.12 0.94,-0.24l0 0 0 -10.4 -6.14 0 -1.07 0 0 -1.06 0 -7.56 0 -1.07 1.07 0 0.59 -0.23zm45.49 -8.98c0.24,0 0.36,0.11 0.47,0.11l0.83 0.12 0 0.83 0 9.22 0 1.3 -1.18 -0.24c-0.12,0 -0.35,0 -0.47,-0.12 -0.12,0 -0.36,0 -0.48,0 -0.23,0 -0.35,0 -0.59,0 -0.11,0 -0.35,0 -0.71,0 -0.7,0 -1.3,0.12 -1.77,0.24 -0.59,0.12 -1.06,0.35 -1.53,0.59 -0.48,0.24 -0.95,0.59 -1.3,1.06 -0.36,0.48 -0.71,0.95 -1.07,1.54l0 0c-0.23,0.59 -0.47,1.3 -0.71,2.01 -0.11,0.82 -0.23,1.65 -0.23,2.6l0 0 0 18.67 0 1.06 -1.07 0 -9.57 0 -1.06 0 0 -1.06 0 -24.94c0,-1.3 0,-2.36 0,-3.19 0,-0.94 0,-2.01 0,-2.95l0 0c0,-0.95 0,-1.77 -0.12,-2.72 0,-0.83 -0.12,-1.65 -0.12,-2.48l0 -1.06 1.07 0 8.27 0 0.94 0 0.12 0.94 0.24 2.96c0.35,-0.48 0.59,-0.83 0.94,-1.3l0 0c0.48,-0.59 1.07,-1.07 1.66,-1.54 0.59,-0.47 1.18,-0.83 1.89,-1.06l0 0c0.59,-0.36 1.3,-0.48 1.89,-0.71 0.71,-0.12 1.3,-0.24 2.01,-0.24 0.12,0 0.35,0 0.71,0l0 0c0.23,0 0.47,0 0.59,0 0.23,0 0.35,0 0.59,0.12l-0.24 0.24zm35.22 12.99c0.11,0.95 0.11,2.01 0.11,3.08l0 0 0 13.23c0,0.71 0,1.3 0,1.54 0,0.47 0,1.06 0,1.53l0 0c0,0.48 0,0.95 0.12,1.54 0,0.47 0,0.94 0.12,1.42l0 0c0,0.47 0.12,0.82 0.12,1.3 0,0.35 0.12,0.82 0.12,1.18l0.23 1.18 -1.18 0 -8.63 0 -0.82 0 -0.12 -0.83 -0.24 -1.77c-0.47,0.47 -0.94,0.83 -1.42,1.18l0 0c-0.59,0.36 -1.06,0.71 -1.65,0.95 -0.59,0.23 -1.18,0.47 -1.89,0.71 -0.71,0.23 -1.3,0.35 -2.01,0.47 -0.71,0.12 -1.42,0.12 -2.13,0.12l0 0c-1.77,0 -3.42,-0.36 -4.96,-0.95l0 0c-0.71,-0.35 -1.42,-0.71 -2.01,-1.06 -0.59,-0.47 -1.18,-0.95 -1.77,-1.54l0 0c-0.47,-0.59 -0.95,-1.18 -1.42,-1.77 -0.35,-0.59 -0.71,-1.3 -0.94,-2.01l0 0c-0.24,-0.71 -0.48,-1.42 -0.6,-2.24 -0.11,-0.71 -0.23,-1.54 -0.23,-2.37l0 0c0,-1.3 0.12,-2.36 0.35,-3.54 0.24,-1.07 0.71,-2.13 1.18,-3.07l0 0c0.48,-0.95 1.19,-1.78 1.9,-2.6 0.7,-0.71 1.53,-1.42 2.48,-2.01 0.94,-0.59 2.01,-1.07 3.07,-1.54 1.06,-0.47 2.24,-0.83 3.54,-1.06 1.3,-0.24 2.6,-0.48 3.9,-0.59 1.07,-0.12 2.13,-0.12 3.19,-0.24 0,-0.24 0,-0.35 -0.11,-0.47 -0.12,-0.48 -0.24,-0.95 -0.36,-1.3l0 0c-0.12,-0.36 -0.35,-0.71 -0.59,-0.95 -0.24,-0.23 -0.59,-0.59 -0.94,-0.71l0 0c-0.36,-0.23 -0.83,-0.35 -1.42,-0.47 -0.59,-0.12 -1.3,-0.24 -2.13,-0.24 -0.83,0 -1.54,0.12 -2.36,0.12 -0.71,0.12 -1.54,0.24 -2.25,0.47l0 0c-0.71,0.24 -1.42,0.48 -2.01,0.71 -0.59,0.24 -1.18,0.59 -1.77,0.95l-1.18 0.71 -0.36 -1.3 -1.77 -6.27 -0.23 -0.7 0.7 -0.36c0.48,-0.23 0.95,-0.47 1.42,-0.83 0.59,-0.23 1.18,-0.47 1.77,-0.7 0.71,-0.24 1.3,-0.48 2.13,-0.71 0.71,-0.24 1.54,-0.36 2.37,-0.48 0.82,-0.11 1.65,-0.23 2.6,-0.35 0.94,-0.12 1.77,-0.12 2.83,-0.12l0 0c1.42,0 2.84,0.12 4.02,0.36 1.3,0.23 2.36,0.59 3.43,0.94l0 0c1.06,0.47 1.89,0.95 2.71,1.54 0.83,0.59 1.54,1.3 2.13,2.12 0.59,0.71 1.06,1.54 1.54,2.49 0.35,0.82 0.71,1.77 0.94,2.71l0 0c0.24,0.95 0.36,1.89 0.48,2.96l0 -0.36zm-11.47 13.83c0.12,-0.47 0.12,-0.83 0.12,-1.42l0 0 0 -4.13c-0.24,0 -0.59,0 -0.83,0l0 0c-0.59,0 -1.3,0.11 -1.89,0.23l0 0c-0.59,0.12 -1.06,0.24 -1.65,0.36 -0.47,0.11 -1.07,0.35 -1.42,0.59 -0.47,0.23 -0.83,0.47 -1.18,0.71 -0.36,0.23 -0.59,0.59 -0.83,0.94l0 0c-0.23,0.36 -0.35,0.71 -0.59,1.18 -0.12,0.48 -0.24,0.95 -0.24,1.54 0,0.47 0,0.94 0.12,1.3 0.12,0.35 0.24,0.71 0.36,0.94l0 0c0.12,0.24 0.35,0.48 0.59,0.71 0.23,0.24 0.47,0.36 0.71,0.48l0 0c0.59,0.23 1.18,0.35 1.77,0.35 0.24,0 0.47,0 0.71,-0.12 0.23,0 0.59,-0.12 0.83,-0.23l0 0c0.23,-0.12 0.59,-0.24 0.82,-0.36 0.24,-0.12 0.59,-0.35 0.83,-0.59 0.24,-0.24 0.47,-0.35 0.71,-0.71 0.24,-0.23 0.35,-0.59 0.59,-0.94l0 0c0.12,-0.36 0.24,-0.71 0.35,-1.07l0.12 0.24zm31.43 -41.24l0 17.72c0.12,-0.11 0.12,-0.11 0.24,-0.23 0.71,-0.71 1.54,-1.3 2.48,-1.78l0 0c0.95,-0.47 1.89,-0.82 3.08,-1.06 1.06,-0.24 2.24,-0.35 3.42,-0.35l0 0c1.07,0 2.13,0.11 3.07,0.35 0.95,0.24 1.9,0.59 2.84,1.06l0 0c0.83,0.48 1.66,1.07 2.48,1.78 0.71,0.71 1.42,1.41 2.13,2.24l0 0c0.59,0.83 1.18,1.77 1.65,2.84l0 0c0.48,1.06 0.83,2.13 1.19,3.31l0 0c0.35,1.18 0.59,2.36 0.7,3.66 0.12,1.3 0.24,2.6 0.24,4.02l0 0c0,1.42 -0.12,2.6 -0.24,3.9 -0.11,1.18 -0.35,2.36 -0.59,3.42 -0.23,1.07 -0.59,2.13 -1.06,3.08 -0.35,0.94 -0.83,1.89 -1.3,2.71l0 0c-0.47,0.83 -1.06,1.54 -1.65,2.25 -0.6,0.71 -1.19,1.3 -1.89,1.89 -0.71,0.59 -1.42,1.06 -2.13,1.42 -0.71,0.47 -1.42,0.71 -2.25,1.06 -0.82,0.24 -1.53,0.48 -2.36,0.59l0 0c-0.83,0.12 -1.66,0.24 -2.36,0.24l0 0c-1.07,0 -2.13,-0.12 -3.19,-0.35 -1.07,-0.24 -2.01,-0.6 -2.84,-1.07l0 0c-0.95,-0.47 -1.77,-1.18 -2.6,-2.01 -0.24,-0.23 -0.36,-0.47 -0.59,-0.59l-0.24 2.37 -0.12 0.94 -0.94 0 -8.16 0 -1.06 0 0 -1.06c0,-0.48 0,-0.95 0.12,-1.42 0,-0.47 0,-1.06 0.12,-1.54l0 0 0 -1.77 0 -1.89c0,-1.06 0,-2.36 0,-3.78l0 -41.83 0 -1.07 1.06 0 9.57 0 1.07 0 0 1.07 0.11 -0.12zm0.12 29.19c-0.12,0.47 -0.12,0.94 -0.12,1.53l0 0 0 7.09 0 0c0,0.59 0.12,1.18 0.24,1.77 0.12,0.6 0.36,1.07 0.59,1.54l0 0c0.24,0.47 0.47,0.95 0.83,1.3 0.35,0.36 0.71,0.71 1.06,0.95 0.36,0.23 0.83,0.47 1.3,0.59 0.48,0.12 0.95,0.23 1.54,0.23 0.71,0 1.3,-0.11 1.77,-0.35 0.59,-0.24 1.06,-0.47 1.54,-0.83l0 0c0.47,-0.35 0.82,-0.83 1.18,-1.42 0.35,-0.59 0.71,-1.3 0.94,-2.01l0 0c0.24,-0.82 0.48,-1.65 0.6,-2.59 0.11,-0.95 0.23,-2.01 0.23,-3.08 0,-0.71 0,-1.42 -0.12,-2.12 -0.11,-0.71 -0.23,-1.3 -0.35,-2.01 -0.12,-0.59 -0.36,-1.19 -0.47,-1.78 -0.24,-0.47 -0.48,-1.06 -0.71,-1.41 -0.24,-0.48 -0.59,-0.83 -0.83,-1.19 -0.35,-0.35 -0.71,-0.59 -1.06,-0.82l0 0c-0.36,-0.24 -0.83,-0.36 -1.18,-0.48 -0.48,-0.11 -0.95,-0.23 -1.42,-0.23l0 0c-0.36,0 -0.71,0 -0.95,0.12 -0.35,0.11 -0.59,0.23 -0.94,0.35l0 0c-0.36,0.12 -0.59,0.36 -0.95,0.59l0 0c-0.24,0.24 -0.59,0.47 -0.83,0.83 -0.23,0.24 -0.47,0.59 -0.71,0.94 -0.23,0.36 -0.35,0.71 -0.59,1.19 -0.11,0.35 -0.23,0.82 -0.35,1.3l-0.24 0zm41.95 3.19l0 19.85 0 1.06 -1.06 0 -9.57 0 -1.07 0 0 -1.06 0 -49.99 0 -1.06 1.07 0 26.7 0 1.06 0 0 1.06 0 8.04 0 1.06 -1.06 0 -16.07 0 0 11.11 14.89 0 1.06 0 0 1.06 0 7.92 0 1.07 -1.06 0 -14.89 0 0 -0.12zm33.21 -16.9l0 0c2.24,-0.95 4.6,-1.3 7.2,-1.3l0 0c1.3,0 2.6,0.12 3.79,0.35 1.18,0.24 2.36,0.59 3.42,1.07l0 0c1.07,0.47 2.13,1.06 2.96,1.77 0.94,0.71 1.77,1.42 2.6,2.36 0.82,0.83 1.41,1.89 2.01,2.84 0.59,1.06 1.06,2.13 1.41,3.31l0 0c0.36,1.18 0.71,2.48 0.95,3.78 0.24,1.3 0.35,2.72 0.35,4.14 0,1.41 -0.11,2.71 -0.23,4.01 -0.12,1.3 -0.48,2.48 -0.83,3.55l0 0c-0.35,1.06 -0.71,2.13 -1.18,3.07 -0.47,0.95 -1.07,1.89 -1.66,2.6l0 0c-0.59,0.83 -1.18,1.54 -1.89,2.13 -0.71,0.71 -1.41,1.3 -2.24,1.77l0 0c-0.71,0.47 -1.54,0.95 -2.37,1.3 -0.82,0.35 -1.65,0.71 -2.48,0.95l0 0c-0.82,0.23 -1.65,0.35 -2.6,0.47 -0.82,0.12 -1.77,0.12 -2.6,0.12l0 0c-1.3,0 -2.48,-0.12 -3.66,-0.36 -1.18,-0.23 -2.36,-0.59 -3.43,-0.94l0 0c-1.06,-0.48 -2.12,-0.95 -3.07,-1.66 -0.94,-0.71 -1.77,-1.42 -2.6,-2.24 -0.83,-0.83 -1.54,-1.78 -2.13,-2.84 -0.59,-1.06 -1.18,-2.13 -1.53,-3.43l0 0c-0.47,-1.18 -0.71,-2.48 -0.95,-3.9l0 0c-0.23,-1.3 -0.35,-2.83 -0.35,-4.37 0,-1.53 0.12,-3.07 0.35,-4.49 0.24,-1.42 0.59,-2.72 1.07,-4.02 0.47,-1.18 0.94,-2.36 1.65,-3.42 0.59,-1.07 1.42,-2.01 2.25,-2.96 0.82,-0.82 1.77,-1.65 2.71,-2.24l0 0c0.95,-0.71 2.01,-1.18 3.08,-1.66l0 0.24zm12.52 22.8c0.24,-1.29 0.47,-2.83 0.47,-4.37 0,-0.71 0,-1.42 -0.11,-2.01 -0.12,-0.71 -0.12,-1.3 -0.24,-2.01 -0.12,-0.59 -0.24,-1.3 -0.47,-1.89 -0.24,-0.59 -0.48,-1.18 -0.71,-1.65l0 0c-0.24,-0.47 -0.47,-0.95 -0.83,-1.3 -0.35,-0.35 -0.59,-0.71 -1.06,-0.95l0 0c-0.36,-0.23 -0.71,-0.47 -1.18,-0.59 -0.48,-0.11 -0.95,-0.23 -1.42,-0.23 -0.47,0 -0.83,0 -1.3,0.12 -0.36,0.11 -0.71,0.23 -1.07,0.35 -0.35,0.24 -0.59,0.47 -0.94,0.71 -0.24,0.24 -0.59,0.59 -0.83,0.83l0 0c-0.23,0.35 -0.47,0.71 -0.71,1.18 -0.23,0.35 -0.35,0.83 -0.59,1.3l0 0c-0.12,0.47 -0.35,0.94 -0.47,1.42 -0.12,0.47 -0.24,0.94 -0.24,1.53 -0.12,0.59 -0.12,1.07 -0.12,1.66l0 0c0,0.47 0,1.06 0,1.65 0,0.83 0,1.54 0.12,2.25 0.12,0.71 0.24,1.41 0.36,2.12l0 0c0.12,0.71 0.35,1.3 0.59,1.89 0.23,0.59 0.47,1.07 0.71,1.54l0 0c0.23,0.47 0.59,0.95 0.94,1.3 0.36,0.35 0.71,0.71 1.07,0.95l0 0c0.35,0.23 0.71,0.47 1.18,0.59l0 0c0.47,0.11 0.83,0.23 1.3,0.23 0.47,0 0.94,-0.12 1.3,-0.23 0.35,-0.12 0.83,-0.36 1.18,-0.59l0 0c0.35,-0.24 0.71,-0.6 1.06,-0.95 0.36,-0.35 0.59,-0.83 0.83,-1.3l0 0c0.24,-0.47 0.47,-1.06 0.71,-1.65 0.24,-0.6 0.35,-1.19 0.47,-1.9zm27.65 -22.8l0 0c2.25,-0.95 4.61,-1.3 7.21,-1.3l0 0c1.3,0 2.6,0.12 3.78,0.35 1.18,0.24 2.37,0.59 3.43,1.07l0 0c1.06,0.47 2.13,1.06 2.95,1.77 0.95,0.71 1.78,1.42 2.6,2.36 0.83,0.83 1.42,1.89 2.01,2.84 0.59,1.06 1.07,2.13 1.42,3.31l0 0c0.36,1.18 0.71,2.48 0.95,3.78 0.23,1.3 0.35,2.72 0.35,4.14 0,1.41 -0.12,2.71 -0.24,4.01 -0.11,1.3 -0.47,2.48 -0.82,3.55l0 0c-0.36,1.06 -0.71,2.13 -1.18,3.07 -0.48,0.95 -1.07,1.89 -1.66,2.6l0 0c-0.59,0.83 -1.18,1.54 -1.89,2.13 -0.71,0.71 -1.42,1.3 -2.25,1.77l0 0c-0.7,0.47 -1.53,0.95 -2.36,1.3 -0.83,0.35 -1.65,0.71 -2.48,0.95l0 0c-0.83,0.23 -1.65,0.35 -2.6,0.47 -0.83,0.12 -1.77,0.12 -2.6,0.12l0 0c-1.3,0 -2.48,-0.12 -3.66,-0.36 -1.18,-0.23 -2.37,-0.59 -3.43,-0.94l0 0c-1.06,-0.48 -2.13,-0.95 -3.07,-1.66 -0.95,-0.71 -1.77,-1.42 -2.6,-2.24 -0.83,-0.83 -1.54,-1.78 -2.13,-2.84 -0.59,-1.06 -1.18,-2.13 -1.54,-3.43l0 0c-0.47,-1.18 -0.7,-2.48 -0.94,-3.9l0 0c-0.24,-1.3 -0.36,-2.83 -0.36,-4.37 0,-1.53 0.12,-3.07 0.36,-4.49 0.24,-1.42 0.59,-2.72 1.06,-4.02 0.48,-1.18 0.95,-2.36 1.66,-3.42 0.59,-1.07 1.42,-2.01 2.24,-2.96 0.83,-0.82 1.77,-1.65 2.72,-2.24l0 0c0.95,-0.71 2.01,-1.18 3.07,-1.66l0 0.24zm12.53 22.8c0.23,-1.29 0.47,-2.83 0.47,-4.37 0,-0.71 0,-1.42 -0.12,-2.01 -0.12,-0.71 -0.12,-1.3 -0.23,-2.01 -0.12,-0.59 -0.24,-1.3 -0.48,-1.89 -0.23,-0.59 -0.47,-1.18 -0.71,-1.65l0 0c-0.23,-0.47 -0.47,-0.95 -0.82,-1.3 -0.36,-0.35 -0.59,-0.71 -1.07,-0.95l0 0c-0.35,-0.23 -0.71,-0.47 -1.18,-0.59 -0.47,-0.11 -0.94,-0.23 -1.42,-0.23 -0.47,0 -0.82,0 -1.3,0.12 -0.35,0.11 -0.71,0.23 -1.06,0.35 -0.35,0.24 -0.59,0.47 -0.95,0.71 -0.23,0.24 -0.59,0.59 -0.82,0.83l0 0c-0.24,0.35 -0.48,0.71 -0.71,1.18 -0.24,0.35 -0.36,0.83 -0.59,1.3l0 0c-0.12,0.47 -0.36,0.94 -0.47,1.42 -0.12,0.47 -0.24,0.94 -0.24,1.53 -0.12,0.59 -0.12,1.07 -0.12,1.66l0 0c0,0.47 0,1.06 0,1.65 0,0.83 0,1.54 0.12,2.25 0.12,0.71 0.24,1.41 0.35,2.12l0 0c0.12,0.71 0.36,1.3 0.59,1.89 0.24,0.59 0.48,1.07 0.71,1.54l0 0c0.24,0.47 0.59,0.95 0.95,1.3 0.35,0.35 0.71,0.71 1.06,0.95l0 0c0.36,0.23 0.71,0.47 1.18,0.59l0 0c0.48,0.11 0.83,0.23 1.3,0.23 0.48,0 0.95,-0.12 1.3,-0.23 0.36,-0.12 0.83,-0.36 1.19,-0.59l0 0c0.35,-0.24 0.7,-0.6 1.06,-0.95 0.35,-0.35 0.59,-0.83 0.83,-1.3l0 0c0.23,-0.47 0.47,-1.06 0.7,-1.65 0.24,-0.6 0.36,-1.19 0.48,-1.9zm41.36 -39.46l9.57 0 1.06 0 0 1.06 0 41.95c0,0.83 0,1.54 0,1.89 0,0.59 0,1.18 0,1.89l0 0c0,0.59 0,1.18 0,1.77 0,0.59 0,1.18 0,1.78l0 0c0,1.06 0.12,2.12 0.12,3.07l0 1.06 -1.06 0 -8.39 0 -0.95 0 -0.12 -0.94 -0.23 -2.49c-0.36,0.48 -0.83,0.83 -1.19,1.19l0 0c-0.59,0.47 -1.18,0.94 -1.77,1.3 -0.59,0.35 -1.3,0.71 -2.01,0.94 -0.71,0.24 -1.42,0.47 -2.24,0.59 -0.71,0.12 -1.54,0.24 -2.37,0.24l0 0c-1.06,0 -2.12,-0.12 -3.19,-0.36 -1.06,-0.23 -2.01,-0.59 -2.95,-1.06l0 0c-0.95,-0.47 -1.77,-1.06 -2.6,-1.77 -0.83,-0.71 -1.54,-1.42 -2.25,-2.37l0 0c-0.7,-0.82 -1.3,-1.77 -1.77,-2.83 -0.47,-1.07 -0.94,-2.13 -1.3,-3.31l0 0c-0.35,-1.18 -0.59,-2.36 -0.83,-3.78 -0.23,-1.3 -0.23,-2.6 -0.23,-4.14l0 0c0,-1.65 0.12,-3.07 0.35,-4.49 0.24,-1.42 0.48,-2.72 0.95,-4.02l0 0c0.35,-1.18 0.83,-2.36 1.42,-3.42 0.59,-1.07 1.18,-2.01 1.89,-2.96l0 0c0.71,-0.82 1.53,-1.65 2.36,-2.24 0.83,-0.71 1.77,-1.18 2.72,-1.66l0 0c0.94,-0.47 1.89,-0.82 2.95,-1.06 1.07,-0.24 2.01,-0.35 3.08,-0.35l0 0c0.7,0 1.53,0 2.12,0.11 0.71,0.12 1.3,0.24 2.01,0.48l0 0c0.59,0.23 1.18,0.47 1.77,0.7 0.59,0.24 1.07,0.6 1.54,0.95l0 0c0.12,0.12 0.24,0.24 0.35,0.35l0 -16.89 0 -1.07 1.07 0 0.12 -0.11zm-1.19 40.29c0.12,-0.59 0.12,-1.18 0.12,-1.77l0 0 0 -6.62 0 0c0,-0.59 0,-1.18 -0.12,-1.65 -0.11,-0.48 -0.23,-0.95 -0.35,-1.42l0 0c-0.12,-0.47 -0.35,-0.83 -0.59,-1.18 -0.24,-0.36 -0.47,-0.71 -0.71,-0.95l0 0c-0.24,-0.23 -0.47,-0.47 -0.83,-0.71 -0.23,-0.23 -0.59,-0.35 -0.82,-0.47 -0.6,-0.24 -1.3,-0.35 -1.9,-0.35l0 0c-0.47,0 -1.06,0.11 -1.41,0.23 -0.48,0.12 -0.83,0.36 -1.18,0.59l0 0c-0.36,0.24 -0.71,0.59 -1.07,0.83 -0.35,0.36 -0.59,0.71 -0.94,1.18l0 0c-0.24,0.48 -0.48,0.95 -0.71,1.54 -0.24,0.59 -0.36,1.18 -0.59,1.77l0 0c-0.12,0.59 -0.24,1.3 -0.36,2.01 -0.12,0.71 -0.12,1.42 -0.12,2.25 0,1.06 0.12,2 0.24,2.95 0.12,0.94 0.35,1.77 0.59,2.48l0 0c0.24,0.71 0.59,1.42 0.95,1.89 0.35,0.59 0.71,1.07 1.18,1.42l0 0c0.47,0.35 0.94,0.71 1.42,0.83l0 0c0.59,0.23 1.18,0.23 1.77,0.23l0 0c0.35,0 0.59,0 0.94,-0.11 0.36,0 0.59,-0.12 0.95,-0.24l0 0c0.35,-0.12 0.59,-0.24 0.94,-0.47 0.24,-0.24 0.6,-0.36 0.83,-0.71l0 0c0.24,-0.24 0.47,-0.59 0.71,-0.83 0.24,-0.35 0.47,-0.71 0.59,-1.18l0 0c0.12,-0.47 0.36,-0.95 0.36,-1.42l0.11 -0.12z"/>
   <path class="fil3" d="M571.85 681.22c0,-9.33 -0.71,-19.26 8.51,-25.64 12.4,-8.51 32.14,-1.65 32.14,15.25 0,7.32 0.71,12.88 -1.78,19.14 -0.82,2.13 -2.36,4.61 -3.66,6.02 -6.14,6.27 -16.31,7.92 -23.87,4.14 -2.13,-1.06 -4.37,-2.36 -5.91,-4.25 -2.83,-3.55 -5.55,-8.16 -5.55,-14.66l0.12 0zm40.65 -38.99c-1.3,-0.83 -1.78,-1.77 -3.43,-2.84 -1.42,-0.94 -2.6,-1.53 -4.25,-2.24 -8.75,-4.14 -21.51,-2.6 -30.14,0.94 -12.64,5.2 -20.79,19.27 -20.79,34.16 0,9.57 -0.59,16.54 3.19,25.4 8.74,20.68 32.73,26.47 51.4,19.02 2.36,-0.94 4.14,-1.89 5.91,-3.19 4.02,-2.71 4.61,-3.54 7.44,-6.61 0.83,-0.83 1.18,-1.66 1.89,-2.6 4.02,-6.03 6.62,-13.71 6.62,-21.63l0 -77.4 -17.84 0 0 37.11 0 -0.12z"/>
   <path class="fil3" d="M422.37 702.38c-3.07,0 -6.26,-0.83 -8.63,-1.78 -7.09,-2.83 -12.17,-11.1 -12.17,-19.38 0,-8.62 -0.71,-16.66 5.55,-23.04 13.12,-13 35.69,-5.08 35.69,15.48 0,7.68 0.12,16.19 -5.43,21.86 -1.78,1.77 -3.67,3.55 -6.03,4.61 -2.25,0.95 -5.91,2.13 -8.98,2.13l0 0.12zm-38.64 -30.61c0,12.76 -0.59,20.44 6.26,31.67 9.45,15.48 32.73,19.97 48.92,12.76 2.36,-1.06 4.26,-2.01 6.26,-3.42 1.07,-0.83 1.78,-1.3 2.72,-2.13 4.49,-3.9 7.92,-8.39 9.93,-14.42 4.25,-12.05 4.37,-33.56 -2.84,-44.55 -1.53,-2.48 -4.13,-5.9 -6.26,-7.68 -1.06,-0.82 -1.3,-1.3 -2.48,-2.12 -9.81,-6.62 -15.36,-7.21 -27.3,-7.21 -9.33,0 -19.14,4.61 -25.29,10.75 -6.26,6.38 -10.16,17.02 -10.16,26.23l0.24 0.12z"/>
   <path class="fil3" d="M506.86 702.38c-8.39,0 -15.95,-4.85 -18.91,-12.29 -2.48,-6.15 -1.89,-10.28 -1.89,-16.9 0,-27.89 41.24,-28.6 41.24,0.71 0,5.55 0.35,9.92 -1.54,15.12 -0.82,2.25 -2.48,5.32 -3.9,6.74 -4.01,4.13 -8.86,6.73 -15,6.73l0 -0.11zm-38.64 -30.61l0 10.05c0,21.38 15.59,37.69 37.69,37.69 6.86,0 12.41,-0.94 17.49,-3.31 3.66,-1.65 6.03,-2.95 8.98,-5.55 11.7,-10.16 12.76,-22.22 12.76,-36.99 0,-9.33 -2.24,-17.72 -7.44,-24.81 -3.55,-4.85 -7.45,-7.8 -12.88,-10.52 -9.93,-4.96 -25.88,-4.96 -35.92,-0.35 -8.39,3.9 -14.42,10.04 -17.85,18.55 -1.65,4.02 -3.07,9.69 -3.07,15.12l0.24 0.12z"/>
   <path class="fil3" d="M317.67 618.48l0 98.55c0,0.71 0.24,0.94 0.95,0.94l16.54 0c0.71,0 0.95,-0.23 0.95,-0.94l0 -38.05 36.75 0 0 -17.25 -36.75 0 0 -26.94 40.65 0 0 -16.31c0,-0.71 -0.24,-0.95 -0.95,-0.95l-57.19 0c-0.71,0 -0.95,0.24 -0.95,0.95l0 0z"/>
   <path class="fil3" d="M-0.54 666.93c0,12.76 0.35,18.08 6.26,29.18 0.71,1.3 1.42,2.49 2.24,3.67 1.66,2.48 3.31,4.25 5.44,6.26 4.61,4.61 7.09,6.5 13.35,9.69 13.24,6.74 32.97,5.91 45.73,-1.06 2.72,-1.42 5.08,-2.72 7.45,-4.85 0.94,-0.83 4.61,-3.66 4.61,-5.08l0 -40.29 -39 0 0 7.8 31.2 0 0 29.89c0,1.42 -3.55,3.66 -4.73,4.37 -2.13,1.3 -3.78,2.25 -6.26,3.19 -16.19,5.91 -34.74,3.43 -47.15,-8.86 -5.67,-5.55 -11.46,-16.19 -11.46,-27.18 0,-8.27 0.23,-15.12 4.49,-22.21l8.74 -11.35c11.46,-9.21 18.32,-11.7 33.56,-11.7 4.14,0 8.15,0.6 11.58,1.42l7.21 2.6c0.71,0.36 1.54,0.83 2.36,1.18l0 -8.74c-3.42,-0.83 -2.95,-1.65 -10.99,-2.95 -11.1,-1.9 -23.75,-1.07 -33.67,3.19 -4.97,2.12 -11.23,5.67 -14.89,9.45 -2.6,2.72 -2.6,2.01 -5.91,6.14 -1.06,1.3 -1.66,2.13 -2.6,3.55 -0.95,1.42 -1.42,2.36 -2.36,3.9 -2.84,4.73 -5.32,13.47 -5.32,19.02l0.12 -0.23z"/>
   <path class="fil3" d="M140.54 671.18c0,9.93 -0.82,16.66 3.67,25.52 1.53,3.19 5.08,8.16 7.68,10.52 9.1,7.92 19.02,12.53 32.14,10.05 2.24,-0.48 3.9,-1.3 5.2,-1.54l0 -7.8c-8.15,1.89 -12.65,4.25 -23.04,-0.35 -1.89,-0.83 -2.96,-1.42 -4.61,-2.6 -2.6,-1.78 -5.44,-4.38 -7.33,-6.98 -6.97,-9.33 -5.91,-15.83 -5.91,-26.94 0,-3.54 1.78,-8.27 2.96,-10.75 3.9,-8.51 14.77,-16.54 25.05,-16.54 8.74,0 14.41,1.53 20.91,7.09 6.38,5.43 10.28,13.11 10.28,21.86l0 45.14 7.8 0 0 -45.5c0,-5.08 -1.65,-10.87 -3.42,-14.41 -3.08,-6.15 -2.84,-5.32 -6.38,-9.58 -5.56,-6.85 -16.9,-12.4 -26,-12.4l-3.31 0c-18.79,0 -35.8,18.19 -35.8,35.09l0.11 0.12z"/>
   <path class="fil3" d="M220.19 679.92c1.06,-0.7 7.92,-9.57 9.22,-10.98l9.57 -10.52c8.74,-8.75 14.53,-14.54 28.36,-14.54 7.21,0 14.41,3.79 19.26,8.63l0.35 0.36c8.63,9.33 8.63,15.59 8.63,27.76 0,28.01 -36.87,41.01 -53.77,16.66 -1.18,-1.77 -3.54,-6.02 -3.78,-8.62 -0.94,0.23 -0.94,0.71 -1.53,1.42 -0.59,0.59 -0.83,0.94 -1.3,1.65 -0.36,0.36 -2.6,3.07 -2.6,3.19 0,4.85 7.2,13.12 11.81,16.19 26.71,18.08 59.09,-2.01 59.09,-31.2l0 -6.5c0,-11.22 -4.97,-20.08 -10.64,-25.76 -3.43,-3.42 -5.79,-5.55 -10.4,-7.79 -11.58,-5.91 -25.64,-4.97 -36.39,2.48l-4.85 3.54c-4.13,3.19 -7.56,6.86 -11.11,10.64 -0.59,0.71 -0.59,0.82 -1.18,1.42 -0.59,0.7 -0.83,0.82 -1.42,1.53 -0.82,1.07 -1.65,2.01 -2.48,3.07 -6.62,7.45 -4.84,6.39 -4.84,17.37l0 0z"/>
   <path class="fil3" d="M12.45 669.29l0 2.6c0,19.26 15.84,35.45 35.1,35.45 6.5,0 14.18,-1.18 19.5,-3.9 0.94,-0.47 4.25,-2.36 4.25,-3.54l0 -22.46 -25.64 0 0 7.8 18.55 0 0 11.35c-6.03,1.42 -7.21,2.95 -16.31,2.95 -15.59,0 -27.65,-12.29 -27.65,-28l0 -2.96c0,-8.15 4.97,-15.59 9.57,-19.38 9.69,-8.15 22.46,-9.57 35.1,-6.38 1.89,0.48 4.02,1.3 5.67,2.13 1.77,0.95 3.19,2.13 4.61,3.19l0 -9.45c-1.54,-0.36 -3.31,-1.54 -5.08,-2.13 -13.35,-4.61 -28.48,-4.49 -40.53,2.95l-5.44 4.02c-6.02,5.56 -11.81,14.18 -11.81,25.64l0.11 0.12z"/>
   <path class="fil3" d="M220.19 701.08c0.47,-0.36 15.36,-19.15 18.9,-23.05 4.02,-4.25 7.69,-8.98 12.06,-13.35 5.79,-5.79 12.64,-10.63 21.98,-6.26 8.03,3.78 9.45,10.63 9.45,19.73 0,6.15 -1.3,9.34 -4.02,12.88 -3.19,4.14 -7.92,5.67 -13.47,5.67 -8.74,0 -16.54,-12.05 -16.54,-21.15 -1.3,0.83 -4.96,6.5 -6.5,7.45 1.18,2.48 1.42,8.03 7.56,14.18 3.67,3.66 9.1,7.21 14.89,7.21 4.85,0 7.68,-0.12 12.05,-2.25 7.21,-3.55 13.59,-11.94 13.59,-20.21 0,-11.46 1.18,-17.37 -7.56,-26.23 -3.43,-3.43 -9.81,-6.85 -16.54,-6.85 -6.62,0 -13.36,4.25 -17.02,7.44 -4.02,3.55 -13.47,14.06 -17.6,18.79 -1.54,1.89 -10.52,12.29 -11.11,13.59 -0.71,1.77 -0.24,9.57 -0.24,12.17l0.12 0.24z"/>
   <path class="fil3" d="M153.54 673.19c0,9.33 -0.59,16.54 6.86,23.99 6.61,6.61 15.36,9.33 24.34,6.61 2.72,-0.82 3.43,-1.65 4.49,-2l0 -8.51c-13.24,8.86 -28.01,0.23 -28.01,-12.41l0 -7.8c0,-13.24 16.78,-22.69 28.48,-10.99 2.96,2.95 4.61,6.85 4.61,12.64l0 43.25 7.8 0 0 -43.25c0,-18.78 -17.13,-30.6 -34.15,-23.51 -2.25,0.94 -5.44,3.19 -7.21,4.84 -0.59,0.6 -0.83,0.95 -1.3,1.66 -3.66,4.37 -6.03,9.22 -6.03,15.36l0.12 0.12z"/>
   <path class="fil3" d="M92.69 672.48l0 45.49 7.8 0 0 -45.49c0,-10.64 6.26,-21.86 16.07,-25.88 7.68,-3.19 16.89,-4.02 24.81,-0.59 1.06,0.47 1.66,0.95 2.72,1.18 0.47,-1.89 4.37,-4.37 4.84,-6.14 -0.59,-0.12 -4.13,-2.13 -7.44,-3.31 -4.73,-1.66 -8.27,-1.54 -13.35,-1.54 -11.35,0 -22.81,6.38 -28.95,15.6 -3.79,5.79 -6.5,13 -6.5,20.8l0 -0.12z"/>
   <path class="fil3" d="M105.69 675.43l0 41.6c0,1.65 3.19,0.94 7.8,0.94l0 -42.89c0,-12.64 8.27,-19.73 20.44,-17.84 1.18,0.23 2.36,0.82 3.66,0.94 0.59,-1.18 0.95,-2.12 1.54,-3.31 0.47,-1.06 1.53,-2.6 1.77,-3.42 -1.06,-0.24 -1.42,-0.59 -2.36,-0.95 -8.98,-3.31 -19.74,-0.35 -26.24,6.26 -4.61,4.73 -6.61,11.7 -6.61,18.79l0 -0.12z"/>
   <path class="fil3" d="M227.99 651.09c1.18,-0.82 3.66,-4.61 6.85,-7.09 0.47,-0.35 0.95,-0.47 0.95,-1.3l0 -39.7 -7.8 0 0 48.09 0 0z"/>
   <path class="fil3" d="M240.99 639.99c2.12,-1.07 3.54,-2.72 5.9,-4.14 0.71,-0.47 1.89,-0.83 1.89,-1.77l0 -31.2 -7.79 0 0 37.11z"/>
  </g>
 </g>
</svg>
