<?xml version="1.0" encoding="UTF-8"?>
<!DOCTYPE svg PUBLIC "-//W3C//DTD SVG 1.1//EN" "http://www.w3.org/Graphics/SVG/1.1/DTD/svg11.dtd">
<!-- Creator: CorelDRAW 2020 (64-Bit) -->
<svg xmlns="http://www.w3.org/2000/svg" xml:space="preserve" width="270px" height="56px" version="1.1" style="shape-rendering:geometricPrecision; text-rendering:geometricPrecision; image-rendering:optimizeQuality; fill-rule:evenodd; clip-rule:evenodd"
viewBox="0 0 270 55.56"
 xmlns:xlink="http://www.w3.org/1999/xlink"
 xmlns:xodm="http://www.corel.com/coreldraw/odm/2003">
 <defs>
  <style type="text/css">
   <![CDATA[
    .fil1 {fill:#FEFEFE}
    .fil0 {fill:#EE4E2C;fill-rule:nonzero}
   ]]>
  </style>
 </defs>
 <g id="Layer_x0020_1">
  <metadata id="CorelCorpID_0Corel-Layer"/>
  <g id="_1944065010160">
   <g>
    <path class="fil0" d="M46.81 0.19l-19.51 0 -19.5 0 -7.17 10.51c0,0 1.5,30.34 1.5,40.5 0,1.66 2.05,4.55 3.67,4.55l21.45 0 21.44 0c1.62,0 3.67,-2.94 3.67,-4.55 0,-10.22 1.5,-40.5 1.5,-40.5l-7.05 -10.51zm-8.01 11.29l-11.45 0 -11.44 0 0 -5.17c0,-0.89 0.72,-1.66 1.66,-1.66l9.78 0 9.77 0c0.89,0 1.67,0.72 1.67,1.66l0 5.17 0.01 0z"/>
    <path class="fil1" d="M22.25 36.14c0,0.67 -3.61,4.55 -3.61,4.55l-0.56 15.06 -4.05 0 -0.56 -15.06c0,0 -3.61,-3.89 -3.61,-4.55 0,-0.5 0,-1.17 0,-1.17l0.39 -16.33c0,-0.23 0.17,-0.39 0.39,-0.39 0,0 0.78,0 1.23,0l0.22 0c0.06,0 0.11,0 0.11,0.06 0.22,0.05 0.44,0.1 0.49,0.33 0,0 0,0 0,0l0 0.06 0 0.33c0,0 0.06,3.27 0.11,6.66 0.06,3.33 0.17,6.78 0.17,6.94 0.06,0.11 0.61,0.62 1.06,0.56 0.49,0 1.06,-0.61 1.06,-0.61l0 -3.17c0,0 0,-10.17 0,-10.67 0,-0.5 0.77,-0.56 0.77,-0.56l0.45 0c0,0 0.78,0.06 0.78,0.56 0,0.55 0,10.67 0,10.67l0 3.17c0,0 0.55,0.55 1.06,0.61 0.49,0 1,-0.5 1.06,-0.56 0.05,-0.38 0.28,-13.6 0.28,-13.6l0 -0.33 0 -0.06c0,0 0,0 0,0 0.05,-0.23 0.28,-0.33 0.49,-0.33 0.06,0 0.06,-0.06 0.11,-0.06l0.23 0c0.44,0 1.22,0 1.22,0 0.22,0 0.39,0.16 0.39,0.39l0.39 16.33c-0.06,0 -0.06,0.67 -0.06,1.17l-0.01 0z"/>
    <path class="fil1" d="M44.8 29.41c0,6.06 -3.89,10.28 -5.55,11.84 -0.45,0.45 -0.78,1.06 -0.78,1.78 -0.11,3.05 -0.5,11.39 -0.55,12.72l-3.61 0c-0.06,-1.33 -0.39,-9.67 -0.56,-12.72 -0.06,-0.67 -0.33,-1.33 -0.78,-1.78 -1.66,-1.56 -5.55,-5.83 -5.55,-11.84 0,-7.66 5.28,-11.1 8.66,-11.1 3.45,0 8.73,3.44 8.73,11.1l-0.01 0z"/>
   </g>
   <g>
    <path class="fil0" d="M170.37 41.52l0 -32.75 19.93 0 0 6.38 -13.22 0 0 6.77 10.4 0 0 6.37 -10.4 0 0 13.22 -6.71 0 0 0.01zm84.3 0.53c-3.03,0 -5.6,-1.19 -7.69,-3.55 -2.11,-2.37 -3.16,-5.19 -3.16,-8.49 0,-3.28 1.05,-6.11 3.16,-8.48 2.1,-2.37 4.67,-3.54 7.69,-3.54 1.45,0 2.83,0.33 3.95,0.92 1.18,0.59 2.03,1.31 2.69,2.16l0 -14.13 6.31 0 0 34.59 -6.31 0 0 -2.57c-0.59,0.85 -1.51,1.58 -2.69,2.16 -1.12,0.59 -2.43,0.93 -3.95,0.93l0 0zm-2.83 -7.5c1.05,1.19 2.5,1.77 4.21,1.77 1.71,0 3.15,-0.58 4.21,-1.77 1.05,-1.18 1.58,-2.69 1.58,-4.54 0,-1.84 -0.53,-3.35 -1.58,-4.53 -1.05,-1.19 -2.5,-1.77 -4.21,-1.77 -1.71,0 -3.16,0.58 -4.21,1.77 -1.05,1.18 -1.58,2.69 -1.58,4.53 -0.07,1.85 0.46,3.36 1.58,4.54zm-14.01 4.01c-2.37,2.3 -5.26,3.49 -8.61,3.49 -3.35,0 -6.25,-1.19 -8.61,-3.49 -2.37,-2.3 -3.55,-5.19 -3.55,-8.55 0,-3.35 1.19,-6.18 3.55,-8.55 2.37,-2.37 5.26,-3.49 8.61,-3.49 3.35,0 6.18,1.18 8.61,3.49 2.37,2.37 3.55,5.19 3.55,8.55 0,3.35 -1.19,6.25 -3.55,8.55zm-8.61 -2.43c1.64,0 2.96,-0.59 4.07,-1.72 1.12,-1.18 1.65,-2.62 1.65,-4.4 0,-1.78 -0.53,-3.23 -1.65,-4.41 -1.11,-1.19 -2.43,-1.72 -4.07,-1.72 -1.65,0 -3.03,0.59 -4.14,1.72 -1.12,1.18 -1.65,2.62 -1.65,4.41 0,1.77 0.53,3.22 1.65,4.4 1.11,1.12 2.49,1.72 4.14,1.72zm-18.15 2.43c-2.37,2.3 -5.26,3.49 -8.61,3.49 -3.35,0 -6.25,-1.19 -8.61,-3.49 -2.37,-2.3 -3.55,-5.19 -3.55,-8.55 0,-3.35 1.18,-6.18 3.55,-8.55 2.37,-2.37 5.26,-3.49 8.61,-3.49 3.35,0 6.25,1.18 8.61,3.49 2.37,2.37 3.54,5.19 3.54,8.55 0,3.35 -1.18,6.25 -3.54,8.55zm-8.55 -2.43c1.64,0 2.95,-0.59 4.07,-1.72 1.12,-1.18 1.65,-2.62 1.65,-4.4 0,-1.78 -0.53,-3.23 -1.65,-4.41 -1.12,-1.19 -2.43,-1.72 -4.07,-1.72 -1.65,0 -3.03,0.59 -4.15,1.72 -1.11,1.18 -1.64,2.62 -1.64,4.41 0,1.77 0.53,3.22 1.64,4.4 1.05,1.12 2.43,1.72 4.15,1.72z"/>
    <path class="fil0" d="M125.82 27.67c-2.11,0 -4.01,0.9 -5.31,2.32l0 -1.65c0,-1.5 -2.39,-1.51 -2.39,0l0 19.55c0,1.5 2.39,1.5 2.39,0l0 -8.71c1.31,1.42 3.21,2.32 5.31,2.32 3.93,0 7.11,-3.1 7.11,-6.91 0,-3.82 -3.18,-6.92 -7.11,-6.92zm0 11.34l0 0c-2.5,0 -4.54,-1.99 -4.54,-4.42 0,-2.19 1.65,-4.02 3.82,-4.36 0.01,0 0.03,-0.01 0.03,-0.01 0.23,-0.03 0.46,-0.05 0.69,-0.05 1.85,0 3.46,1.08 4.16,2.64 0,0.01 0,0.02 0,0.02 0.25,0.54 0.38,1.13 0.38,1.76 0,2.43 -2.04,4.41 -4.54,4.41l0 0.01zm-17.65 2.5c-3.92,0 -7.12,-3.11 -7.12,-6.92 0,-3.81 3.19,-6.91 7.12,-6.91 3.92,0 7.12,3.1 7.12,6.91 0,3.81 -3.19,6.92 -7.12,6.92zm0 -11.34l0 0c-2.51,0 -4.55,1.98 -4.55,4.42 0,2.43 2.04,4.41 4.55,4.41 2.5,0 4.54,-1.98 4.54,-4.41 0,-2.44 -2.04,-4.42 -4.54,-4.42zm57.17 4.28c-0.06,-3.18 -1.73,-6.05 -5.2,-6.69 -2.98,-0.55 -6.48,0.98 -7.75,3.7 -1.32,2.82 -0.77,6.7 1.84,8.67 2.82,2.13 7.22,1.47 10.11,-0.1 1.35,-0.74 0.14,-2.75 -1.21,-2.02 -1.83,1 -4.23,1.49 -6.28,0.83 -1.53,-0.5 -2.4,-1.79 -2.66,-3.23l9.96 0c0.64,0 1.21,-0.54 1.19,-1.17l0 0.01zm-11.07 -1.16l0 0c0.02,-0.09 0.05,-0.17 0.07,-0.26 0.57,-1.89 2.54,-2.99 4.52,-3.04 2.28,-0.06 3.56,1.47 3.96,3.3l-8.54 0 -0.01 0zm-4.86 1.18c-0.06,-3.18 -1.73,-6.05 -5.2,-6.69 -2.99,-0.54 -6.48,0.98 -7.75,3.7 -1.33,2.82 -0.77,6.7 1.84,8.67 2.82,2.13 7.22,1.48 10.11,-0.1 1.35,-0.73 0.14,-2.74 -1.21,-2.01 -1.83,1 -4.23,1.49 -6.28,0.83 -1.54,-0.5 -2.4,-1.8 -2.67,-3.24l9.96 0c0.64,0 1.21,-0.53 1.2,-1.16l0 0zm-11.07 -1.16l0 0c0.02,-0.08 0.04,-0.17 0.07,-0.25 0.57,-1.89 2.53,-2.99 4.52,-3.05 2.27,-0.05 3.55,1.47 3.95,3.3l-8.53 0 -0.01 0zm-40.1 -1.07l0 8.08c0,1.53 -2.39,1.53 -2.39,0l0 -7.92c-0.09,-1.57 -1.42,-2.28 -1.46,-2.3 -1.71,-0.74 -4.8,-0.4 -6.64,1.94l0 8.29c0,1.53 -2.4,1.53 -2.4,0l0 -20.76c0,-1.53 2.4,-1.52 2.4,0l0 9.33c2.93,-1.96 6.67,-1.75 8.42,-0.55 0,0 2.11,1.15 2.07,3.9l0 -0.01zm-16.81 -11.72c-2.34,-2.59 -7.27,-2.66 -10.13,-0.85 -2.74,1.73 -3.84,5.65 -1.51,8.13 2.88,3.08 8.49,1.98 10.76,5.9 1.65,2.83 -0.93,5.37 -3.83,5.43 -2.26,0.05 -5.04,-0.71 -6.61,-2.33 -1.05,-1.09 -2.75,0.55 -1.7,1.63 2.32,2.4 6.59,3.47 9.91,2.86 3.09,-0.57 5.59,-3.47 5.08,-6.59 -0.63,-3.86 -4.51,-5.72 -8.01,-6.74 -2.55,-0.74 -6.18,-2.4 -3.75,-5.47 1.71,-2.16 6.18,-2.45 8.09,-0.35 1.01,1.11 2.7,-0.52 1.69,-1.63l0.01 0.01z"/>
   </g>
  </g>
 </g>
</svg>
