<?xml version="1.0" encoding="UTF-8"?>
<!DOCTYPE svg PUBLIC "-//W3C//DTD SVG 1.1//EN" "http://www.w3.org/Graphics/SVG/1.1/DTD/svg11.dtd">
<!-- Creator: CorelDRAW 2020 (64-Bit) -->
<svg xmlns="http://www.w3.org/2000/svg" xml:space="preserve" width="270px" height="56px" version="1.1" style="shape-rendering:geometricPrecision; text-rendering:geometricPrecision; image-rendering:optimizeQuality; fill-rule:evenodd; clip-rule:evenodd"
viewBox="0 0 270 55.56"
 xmlns:xlink="http://www.w3.org/1999/xlink"
 xmlns:xodm="http://www.corel.com/coreldraw/odm/2003">
 <defs>
  <style type="text/css">
   <![CDATA[
    .str0 {stroke:#373435;stroke-width:0.9;stroke-miterlimit:2.61313}
    .fil2 {fill:#E62129}
    .fil3 {fill:#F64552}
    .fil4 {fill:white}
    .fil1 {fill:#373435;fill-rule:nonzero}
    .fil5 {fill:#E62129;fill-rule:nonzero}
    .fil0 {fill:url(#id0)}
   ]]>
  </style>
  <linearGradient id="id0" gradientUnits="userSpaceOnUse" x1="171.42" y1="8.83" x2="253.19" y2="32.59">
   <stop offset="0" style="stop-opacity:1; stop-color:#FEFEFE"/>
   <stop offset="0.419608" style="stop-opacity:1; stop-color:#FEEF2B"/>
   <stop offset="1" style="stop-opacity:1; stop-color:#EF4223"/>
  </linearGradient>
 </defs>
 <g id="Layer_x0020_1">
  <metadata id="CorelCorpID_0Corel-Layer"/>
  <g id="_1943951313280">
   <path class="fil0 str0" d="M69.58 39.06l10.86 -33.63 27.38 0c4.6,0 9.79,2.72 8.61,8.73l-3.07 10.39c0,0 -1.41,4.6 -10.03,4.72l-18.76 0 -3.42 9.79 -11.57 0zm76.71 -9.67l-16.41 0 -3.18 9.79 -11.21 0 10.74 -33.75 11.32 0 -5.19 16.29 16.4 0 5.2 -16.17 11.09 0 -10.62 33.63 -11.33 0 3.19 -9.79zm-58.42 -7.56l2.72 -8.61 12.27 0c1.3,0 2.95,0.59 2.6,2.12l-1.06 4.25c-0.24,0.47 -1.18,2.13 -4.14,2.13l-12.39 0.11zm74.11 17.59l11.09 -33.99 24.9 0c0,0 4.01,0.59 4.72,3.31l0.94 0c0,0 7.2,-6.02 16.52,-6.02 9.33,-0.12 13.69,3.42 13.69,3.42 0,0 -10.5,-2.6 -18.05,1.77 -2.6,1.18 -5.31,4.01 -4.25,7.08 0.83,2.36 4.13,1.18 5.55,0.35 4.6,-2.47 10.62,-6.13 14.98,-6.49 5.55,-0.35 7.79,0.71 12.87,2.95 4.01,1.77 8.37,-0.11 8.37,-0.11 0,0 -3.65,4.01 -9.67,4.01 0,0 -2.72,-0.12 -4.96,-0.59 -2.36,-0.47 -5.66,-0.83 -7.55,-0.12 -1.77,0.83 -2.13,3.19 -2.13,3.19 -0.47,4.13 2.25,5.66 5.43,5.78 3.07,0 5.9,-1.3 8.74,-2.24 0,0 8.14,-2.95 12.74,-3.54 0,0 9.91,-1.66 13.22,2.83 0,0 -5.43,-2.24 -12.39,0.23 0,0 -3.43,1.42 -5.08,2.48 -9.67,6.61 -16.87,8.62 -27.97,3.42 -5.9,-2.83 -7.78,-2.24 -9.91,-1.65 0,0 1.89,-2.59 6.73,-2.12 4.72,0.47 5.31,0.59 6.25,0.35 1.54,-0.35 1.77,-2.48 0.47,-3.3 -0.7,-0.47 -1.88,-0.95 -4.13,-0.95 -3.65,0 -16.16,1.3 -18.99,9.21 0,0 2.24,2.12 7.55,0.23 0,0 -2.01,6.38 -13.22,6.26 0,0 -2,3.77 -9.2,3.89l-27.26 0.36zm13.69 -7.67l6.02 -18.53 10.5 0c0,0 3.54,-0.12 3.77,2.48 0,0 0.12,0.94 -0.47,2.95 -0.71,2.12 -3.3,9.91 -3.3,9.91 0,0 -0.71,3.19 -4.49,3.19l-12.03 0z"/>
   <path class="fil1" d="M133.54 46.02l4.13 0c0.83,0 1.42,0.24 1.77,0.59 0.36,0.36 0.47,0.95 0.24,1.66 -0.24,0.7 -0.59,1.29 -1.3,1.77 -0.59,0.47 -1.3,0.59 -2.36,0.59l-1.3 0 -0.82 2.71 -2.48 0 2.12 -7.32zm1.54 3.19l0.59 0c0.47,0 0.94,-0.12 1.18,-0.24 0.23,-0.23 0.35,-0.35 0.35,-0.59 0.12,-0.23 0.12,-0.47 0,-0.59 -0.12,-0.23 -0.47,-0.23 -0.94,-0.23l-0.71 0 -0.47 1.65zm6.6 -3.19l2.48 0 -2.12 7.32 -2.48 0 2.12 -7.32zm4.02 0l6.96 0 -0.36 1.42 -5.78 4.37 4.72 0 -0.47 1.53 -7.55 0 0.47 -1.53 5.55 -4.25 -4.02 0 0.48 -1.54zm8.02 0l6.96 0 -0.35 1.42 -5.67 4.37 4.61 0 -0.48 1.53 -7.55 0 0.47 -1.53 5.55 -4.25 -4.01 0 0.47 -1.54zm11.45 6.14l-2.84 0 -0.7 1.18 -2.48 0 5.07 -7.32 2.6 0 0.94 7.32 -2.59 0 0 -1.18zm-0.12 -1.53l-0.12 -2.72 -1.65 2.72 1.77 0zm9.32 -4.61l2.48 0 -0.83 2.6 2.72 0 0.7 -2.6 2.48 0 -2 7.32 -2.48 0 0.82 -2.95 -2.71 0 -0.83 2.95 -2.47 0 2.12 -7.32zm14.4 0l2.47 0 -1.18 4.37c-0.23,0.47 -0.35,0.83 -0.59,1.3 -0.23,0.35 -0.59,0.71 -1.06,0.94 -0.35,0.36 -0.71,0.47 -1.06,0.59 -0.59,0.24 -1.18,0.24 -1.89,0.24 -0.35,0 -0.71,0 -1.18,0 -0.47,-0.12 -0.82,-0.12 -1.06,-0.36 -0.24,-0.11 -0.47,-0.35 -0.71,-0.59 -0.12,-0.23 -0.23,-0.59 -0.23,-0.82 0,-0.47 0,-0.95 0.11,-1.3l1.18 -4.37 2.48 0 -1.3 4.49c-0.11,0.35 0,0.71 0.12,0.94 0.24,0.24 0.47,0.36 0.95,0.36 0.35,0 0.82,-0.12 1.06,-0.36 0.35,-0.23 0.47,-0.47 0.59,-0.94l1.3 -4.49zm3.54 0l7.43 0 -0.47 1.77 -2.48 0 -1.53 5.55 -2.48 0 1.53 -5.55 -2.48 0 0.48 -1.77zm12.39 0l3.65 0c0.71,0 1.18,0.12 1.66,0.24 0.35,0.24 0.7,0.47 0.82,0.83 0.24,0.35 0.36,0.7 0.36,1.18 0,0.47 -0.12,0.94 -0.24,1.41 -0.24,0.83 -0.47,1.42 -0.83,1.89 -0.35,0.35 -0.7,0.71 -1.06,1.06 -0.47,0.24 -0.94,0.47 -1.3,0.59 -0.59,0.12 -1.06,0.12 -1.53,0.12l-3.66 0 2.13 -7.32zm1.88 1.66l-1.06 4.01 0.59 0c0.47,0 0.95,0 1.18,-0.12 0.24,-0.12 0.47,-0.35 0.59,-0.59 0.24,-0.24 0.47,-0.71 0.59,-1.3 0.24,-0.71 0.24,-1.3 0,-1.53 -0.12,-0.36 -0.59,-0.47 -1.18,-0.47l-0.71 0zm6.73 -1.66l6.49 0 -0.35 1.54 -4.13 0 -0.36 1.18 3.78 0 -0.36 1.53 -3.89 0 -0.35 1.42 4.24 0 -0.47 1.65 -6.72 0 2.12 -7.32zm8.02 0l2.48 0 -1.65 5.55 3.89 0 -0.47 1.77 -6.37 0 2.12 -7.32zm7.44 0l2.48 0 -2.01 7.32 -2.48 0 2.01 -7.32zm3.54 0l2.48 0 0.35 5.31 3.3 -5.31 2.48 0 -5.07 7.32 -2.6 0 -0.94 -7.32zm9.44 0l6.49 0 -0.36 1.54 -4.13 0 -0.35 1.18 3.78 0 -0.36 1.53 -3.89 0 -0.36 1.42 4.25 0 -0.47 1.65 -6.73 0 2.13 -7.32zm5.9 7.32l2.12 -7.32 4.13 0c0.71,0 1.3,0 1.65,0.24 0.36,0.12 0.59,0.24 0.83,0.59 0.12,0.35 0.12,0.71 0,1.18 -0.12,0.47 -0.35,0.83 -0.59,1.06 -0.24,0.36 -0.59,0.59 -0.94,0.71 -0.24,0.12 -0.59,0.24 -0.95,0.35 0.24,0.12 0.47,0.12 0.47,0.24 0.12,0.12 0.24,0.24 0.36,0.47 0.12,0.12 0.12,0.24 0.23,0.36l0.59 2.12 -2.83 0 -0.71 -2.24c0,-0.24 -0.11,-0.47 -0.23,-0.47 -0.12,-0.12 -0.36,-0.24 -0.59,-0.24l-0.24 0 -0.82 2.95 -2.48 0zm3.77 -4.37l1.07 0c0,0 0.23,0 0.59,0 0.23,-0.11 0.35,-0.11 0.47,-0.23 0.12,-0.24 0.23,-0.36 0.35,-0.47 0,-0.24 0,-0.48 -0.12,-0.59 -0.11,-0.12 -0.47,-0.12 -0.94,-0.12l-1.06 0 -0.36 1.41zm5.67 -2.95l2.71 0 0.95 2.48 2.36 -2.48 2.71 0 -4.37 4.25 -0.82 3.07 -2.48 0 0.83 -3.07 -1.89 -4.25z"/>
   <path class="fil1" d="M213.9 40.71l0 -3.18 -1.06 0 0 -0.71 2.83 0 0 0.71 -1.06 0 0 3.18 -0.71 0zm2.24 0l0 -3.89 1.06 0 0.71 2.71 0.59 -2.71 1.06 0 0 3.89 -0.59 0 0 -3.06 -0.7 3.06 -0.71 0 -0.71 -3.06 0 3.06 -0.71 0z"/>
   <g>
    <path class="fil2" d="M20.85 5.9c0.12,0.48 -0.47,0.59 -1.65,1.07 -1.89,0.7 -3.54,1.41 -5.31,2.47 -4.25,2.48 -7.67,6.97 -9.32,11.8 -1.42,4.37 -1.42,14.28 0.47,18.53 1.65,3.54 2.12,3.78 4.48,6.14 2.36,2.36 6.73,5.19 9.91,6.01 1.07,0.24 2.25,0.36 3.31,0.59 0.71,0.12 1.18,0.48 0.82,0.59 -2.36,1.07 -9.79,-1.88 -12.15,-3.54 -3.07,-2.12 -4.84,-4.48 -6.96,-7.31 -2.6,-3.42 -3.07,3.18 4.72,9.2 7.08,5.55 18.88,5.31 27.02,1.65 6.02,-2.71 10.39,-6.49 13.45,-12.27 1.07,-2 1.77,-3.66 2.36,-6.13 1.18,-4.25 0.59,-11.21 -0.47,-15.58 -1.77,-6.49 -6.96,-10.62 -12.51,-13.1 -3.89,-1.77 -7.78,-1.3 -6.25,-2.24 1.42,-0.83 6.02,0.83 7.32,1.42 2.12,0.94 4.24,2.24 5.9,3.42 8.37,5.66 10.03,18.29 7.67,27.61 -0.59,2.48 -1.54,4.72 -2.6,6.73 -2.24,3.77 -5.55,6.72 -9.32,9.2 -0.47,0.35 -2.72,1.42 -2.36,2.01 0.35,0.82 3.18,-0.48 3.66,-0.71 3.3,-1.89 7.55,-5.67 9.91,-8.62 2.83,-3.3 4.6,-7.78 5.19,-13.33 0.59,-6.37 0.12,-10.86 -2.12,-16.17 -6.49,-15.81 -22.9,-17.81 -37.65,-12.5 -3.18,1.18 -6.37,2.83 -8.97,4.83 -1.41,1.07 -2.59,2.01 -3.65,3.31 -2.84,3.42 -4.37,5.66 -5.43,10.85 -0.36,1.77 -0.71,6.73 0.12,8.26 0.23,0.36 0.7,1.07 1.29,0.71 0.48,-0.23 0.36,-1.41 0.36,-2 0,-1.42 0.23,-2.84 0.47,-4.25 0.83,-4.72 2.83,-9.21 6.25,-12.39 1.07,-0.95 0.95,-1.06 2.36,-2.13 2.01,-1.53 9.44,-5.42 9.68,-4.13l0 0z"/>
    <path class="fil3" d="M2.56 39.18c0.12,-0.24 0,-3.54 -0.59,-5.07 -0.83,-1.89 -3.89,-1.18 -2.48,3.42 0.36,1.18 2.01,2.48 3.07,1.65l0 0z"/>
    <path class="fil4" d="M33.36 19.83c0.71,-0.12 1.06,0.23 1.18,0.82 0.83,2.95 0.83,2.95 0.83,2.95 0.23,0.36 3.65,1.3 4.36,1.54 1.54,0.59 2.83,1.18 4.25,1.89 0.59,0.23 1.65,0.7 1.18,1.65 -0.35,0.71 -1.53,0.47 -2.48,0.47 -10.26,0 -17.7,0.94 -27.61,2.36 -0.83,0.12 -4.6,0.94 -5.08,0.47 -0.7,-0.82 2.48,-2.36 2.95,-2.71 1.3,-0.71 2.48,-1.42 3.9,-2.01 4.13,-1.77 2.83,-0.71 4.95,-4.01 0.95,-1.18 0.71,-1.3 1.54,-1.42 10.03,-2 10.03,-2 10.03,-2l0 0z"/>
   </g>
   <path class="fil5" d="M51.77 55.7l0 -3.19 -1.18 0 0 -0.59 2.95 0 0 0.59 -1.06 0 0 3.19 -0.71 0zm2.24 0l0 -3.78 1.06 0 0.59 2.6 0.71 -2.6 1.06 0 0 3.78 -0.71 0 0 -2.95 -0.7 2.95 -0.71 0 -0.71 -2.95 0 2.95 -0.59 0z"/>
  </g>
 </g>
</svg>
