<?xml version="1.0" encoding="UTF-8"?>
<!DOCTYPE svg PUBLIC "-//W3C//DTD SVG 1.1//EN" "http://www.w3.org/Graphics/SVG/1.1/DTD/svg11.dtd">
<!-- Creator: CorelDRAW 2020 (64-Bit) -->
<svg xmlns="http://www.w3.org/2000/svg" xml:space="preserve" width="270px" height="56px" version="1.1" style="shape-rendering:geometricPrecision; text-rendering:geometricPrecision; image-rendering:optimizeQuality; fill-rule:evenodd; clip-rule:evenodd"
viewBox="0 0 270 55.56"
 xmlns:xlink="http://www.w3.org/1999/xlink"
 xmlns:xodm="http://www.corel.com/coreldraw/odm/2003">
 <defs>
  <style type="text/css">
   <![CDATA[
    .fil0 {fill:black;fill-rule:nonzero}
    .fil1 {fill:#ED2836;fill-rule:nonzero}
    .fil2 {fill:white;fill-rule:nonzero}
   ]]>
  </style>
 </defs>
 <g id="Layer_x0020_1">
  <metadata id="CorelCorpID_0Corel-Layer"/>
  <g id="_1943945125152">
   <g>
    <path class="fil0" d="M93.35 37.89c-7.39,6.18 -17.78,2.76 -21.63,-2.35 -4.4,-5.85 -3.99,-14.5 0.95,-19.71 4.94,-5.22 15.03,-6.17 20.62,-1.19 0,-1.13 0,-2.13 0,-3.21 2.6,0 5.04,0 7.6,0 0,0.44 0,0.85 0,1.25 0,9.35 0.02,18.71 0,28.06 -0.01,5.79 -2.79,9.92 -7.91,12.4 -6.35,3.07 -15.93,1.45 -21.06,-3.37 -0.27,-0.27 -0.61,-0.46 -0.48,-0.6 1.49,-1.64 2.97,-3.3 4.5,-4.91 0.11,-0.11 0.68,0.07 0.91,0.26 3.49,2.77 7.42,3.52 11.65,2.33 3.09,-0.86 4.82,-3.41 4.85,-6.61 0,-0.75 0,-1.5 0,-2.35l0 0zm-0.41 -11.75l0 0c0.16,-1.73 0.02,-3.49 -1.29,-4.98 -1.11,-1.27 -2.53,-2 -4.11,-2.49 -3.12,-0.98 -7.2,0.16 -9.21,2.54 -1.65,1.94 -1.91,4.22 -1.58,6.57 0.47,3.24 2.35,5.35 5.58,6.09 1,0.22 2.07,0.37 3.09,0.29 2.64,-0.18 4.99,-1.01 6.62,-3.31 1,-1.42 0.98,-2.99 0.9,-4.71l0 0z"/>
    <path class="fil0" d="M260.33 1.47c2.74,0 5.27,0 7.88,0 0,12.99 0,25.93 0,38.93 -2.37,0 -4.72,0 -7.18,0 0,-0.8 0,-1.62 0,-2.73 -3.46,3.27 -7.45,3.97 -11.72,3.52 -4.32,-0.47 -7.95,-2.31 -10.6,-5.84 -4.18,-5.58 -3.65,-14.17 1.28,-19.47 4.6,-4.94 13.86,-6.41 20.34,-1.61 0,-4.31 0,-8.51 0,-12.8l0 0zm0.09 24.88l0 0c-0.02,0 -0.04,0 -0.06,0 0,-0.53 -0.02,-1.05 0,-1.57 0.09,-2.03 -0.78,-3.64 -2.44,-4.64 -1.27,-0.77 -2.72,-1.42 -4.18,-1.68 -3.38,-0.63 -6.96,0.63 -8.76,3.6 -2.25,3.68 -1.12,8.95 2.44,10.99 2.45,1.39 5.08,1.55 7.75,0.8 2.43,-0.68 4.34,-2.04 5.03,-4.61 0.24,-0.92 0.16,-1.93 0.22,-2.89l0 0z"/>
    <path class="fil0" d="M121.95 11.36c5.71,0.1 10.54,2.26 13.72,7.41 1.53,2.48 2.08,5.24 1.99,8.16 -0.1,3.17 -1.08,5.99 -3,8.47 -2.39,3.1 -5.61,4.89 -9.44,5.58 -4.94,0.88 -9.59,0.16 -13.7,-2.88 -6.63,-4.9 -7.82,-14.72 -2.59,-21.04 3.33,-4.03 7.72,-5.65 13.02,-5.7l0 0zm7.76 15l0 0c0.26,-4.58 -3.35,-8.05 -7.78,-8.04 -5.04,0.02 -8.31,3.18 -8.31,8.1 0,4.66 3.38,8.02 8.14,7.97 5.19,-0.07 8.18,-3.94 7.95,-8.03l0 0z"/>
    <path class="fil0" d="M197.69 26.27c0.08,8.13 -6.4,13.96 -13.53,14.84 -5.17,0.64 -9.8,-0.42 -13.73,-3.91 -5.67,-5.03 -6.54,-13.84 -1.86,-19.77 3.49,-4.43 8.18,-6.3 13.8,-6.06 3.69,0.16 7,1.25 9.88,3.58 2.44,1.98 4.11,4.49 4.86,7.55 0.3,1.23 0.39,2.51 0.58,3.77zm-8.06 0.07l0 0c0.19,-4.66 -3.28,-7.86 -7.47,-8.02 -5.6,-0.23 -8.58,3.58 -8.63,7.87 -0.05,4.78 3.27,8.17 8.05,8.14 5.04,-0.02 8.19,-3.49 8.05,-7.99z"/>
    <path class="fil0" d="M200.78 25.32c-0.14,-6.43 5.42,-12.43 12.4,-13.64 6.26,-1.09 11.88,0.27 16.23,5.24 1.82,2.08 2.8,4.57 3.21,7.33 0.54,3.6 -0.17,6.93 -2.11,9.94 -2.58,4.02 -6.38,6.23 -11.1,6.9 -4.59,0.65 -8.84,-0.14 -12.61,-2.92 -4.01,-2.95 -6.01,-6.95 -6.02,-12.85l0 0zm7.96 0.98l0 0c-0.01,4.78 3.23,8.02 8.03,8.05 4.69,0.03 8.1,-3.35 8.1,-8.02 0.01,-4.56 -3.29,-7.9 -7.66,-8.03 -5.05,-0.15 -8.6,3.29 -8.47,8l0 0z"/>
    <path class="fil0" d="M154.73 18.86c0,7.29 0,14.38 0,21.52 -2.65,0 -5.23,0 -7.92,0 0,-7.14 0,-14.26 0,-21.44 -2.01,0 -3.91,-0.03 -5.81,0.01 -0.74,0.02 -0.97,-0.22 -0.96,-0.94 0.04,-1.94 0.02,-3.88 0.02,-5.92 2.28,0 4.45,0 6.8,0 0,-1.37 -0.15,-2.67 0.03,-3.92 0.53,-3.8 2.87,-6.26 6.74,-6.68 3.06,-0.33 6.16,-0.21 9.25,-0.25 0.21,0 0.61,0.37 0.61,0.57 0.05,2.04 0.03,4.08 0.03,6.28 -2.19,0 -4.26,-0.02 -6.34,0 -1.83,0.01 -2.44,0.65 -2.44,2.54 0,0.44 0,0.88 0,1.41 3.56,0 7.02,0 10.56,0 0,2.29 0,4.49 0,6.82 -3.46,0 -6.95,0 -10.57,0l0 0z"/>
   </g>
   <g>
    <path class="fil1" d="M27.85 55.75c-15.27,0.1 -28.07,-12.49 -27.8,-28.23 0.25,-15.03 12.42,-27.45 28.03,-27.32 15.57,0.12 27.54,12.86 27.55,27.77 0.02,15.42 -12.73,27.92 -27.78,27.78l0 0zm18.35 -30.48l0 0c-0.03,-1.54 -0.42,-3.45 -1.03,-5.3 -0.7,-2.11 -1.67,-4.06 -3.35,-5.6 -1.75,-1.61 -4.18,-1.95 -6.26,-0.8 -1.78,0.97 -2.85,2.57 -3.69,4.34 -1.13,2.35 -1.67,4.86 -1.88,7.44 -0.12,1.49 0.06,2.95 0.68,4.33 0.71,1.57 1.83,2.76 3.21,3.75 1.1,0.78 1.66,1.87 1.68,3.24 0.01,1.02 0.06,2.05 0.12,3.07 0.06,0.92 0.08,1.86 0.24,2.76 0.19,1.05 1.3,1.83 2.3,1.75 1.16,-0.1 2.1,-1.05 2.15,-2.18 0.09,-1.7 0.19,-3.41 0.24,-5.11 0.05,-1.64 0.74,-2.85 2.08,-3.82 2.5,-1.83 3.7,-4.33 3.51,-7.87zm-30.35 -6.21l0 0c0,1.45 0.01,2.89 -0.01,4.33 -0.01,0.8 -0.6,1.44 -1.31,1.46 -0.72,0.04 -1.36,-0.54 -1.37,-1.35 0,-1.18 0.04,-2.36 0.15,-3.53 0.11,-1.2 0.33,-2.39 0.47,-3.6 0.13,-1.14 -0.73,-2.18 -1.86,-2.31 -1.02,-0.11 -1.99,0.73 -2.12,1.87 -0.16,1.38 -0.39,2.77 -0.46,4.16 -0.1,2.19 -0.24,4.39 -0.08,6.57 0.21,2.96 1.67,5.3 4.15,6.97 1.18,0.81 1.87,1.93 1.96,3.36 0.11,1.7 0.16,3.4 0.24,5.11 0.03,0.85 0.67,1.73 1.45,2 0.89,0.31 1.74,0.09 2.38,-0.61 0.48,-0.52 0.62,-1.16 0.65,-1.83 0.04,-1.25 0.06,-2.5 0.12,-3.75 0.02,-0.53 0.08,-1.06 0.2,-1.57 0.28,-1.17 1.05,-1.99 2.04,-2.63 1.56,-1.01 2.63,-2.41 3.36,-4.11 0.68,-1.56 0.74,-3.21 0.73,-4.85 -0.02,-2.04 -0.17,-4.09 -0.32,-6.12 -0.07,-1.02 -0.26,-2.03 -0.44,-3.03 -0.16,-0.84 -1,-1.52 -1.82,-1.57 -0.78,-0.04 -1.52,0.51 -1.89,1.29 -0.37,0.78 -0.1,1.53 -0.03,2.29 0.15,1.94 0.32,3.88 0.42,5.83 0.01,0.36 -0.23,0.8 -0.48,1.09 -0.34,0.39 -0.84,0.41 -1.32,0.2 -0.57,-0.24 -0.79,-0.73 -0.8,-1.32 -0.01,-2.62 0,-5.24 -0.01,-7.86 0,-0.32 -0.04,-0.64 -0.1,-0.95 -0.24,-1.09 -1.12,-1.79 -2.1,-1.7 -1.04,0.09 -1.8,0.98 -1.8,2.12 -0.01,1.35 0,2.7 0,4.04l0 0z"/>
    <path class="fil2" d="M46.2 25.27c-0.03,-1.54 -0.42,-3.45 -1.03,-5.3 -0.7,-2.11 -1.67,-4.06 -3.35,-5.6 -1.75,-1.61 -4.18,-1.95 -6.26,-0.8 -1.78,0.97 -2.85,2.57 -3.69,4.34 -1.13,2.35 -1.67,4.86 -1.88,7.44 -0.12,1.49 0.06,2.95 0.68,4.33 0.71,1.57 1.83,2.76 3.21,3.75 1.1,0.78 1.66,1.87 1.68,3.24 0.01,1.02 0.06,2.05 0.12,3.07 0.06,0.92 0.08,1.86 0.24,2.76 0.19,1.05 1.3,1.83 2.3,1.75 1.16,-0.1 2.1,-1.05 2.15,-2.18 0.09,-1.7 0.19,-3.41 0.24,-5.11 0.05,-1.64 0.74,-2.85 2.08,-3.82 2.5,-1.83 3.7,-4.33 3.51,-7.87z"/>
    <path class="fil2" d="M15.85 19.06c0,1.45 0.01,2.89 -0.01,4.33 -0.01,0.8 -0.6,1.44 -1.31,1.46 -0.72,0.04 -1.36,-0.54 -1.37,-1.35 0,-1.18 0.04,-2.36 0.15,-3.53 0.11,-1.2 0.33,-2.39 0.47,-3.6 0.13,-1.14 -0.73,-2.18 -1.86,-2.31 -1.02,-0.11 -1.99,0.73 -2.12,1.87 -0.16,1.38 -0.39,2.77 -0.46,4.16 -0.1,2.19 -0.24,4.39 -0.08,6.57 0.21,2.96 1.67,5.3 4.15,6.97 1.18,0.81 1.87,1.93 1.96,3.36 0.11,1.7 0.16,3.4 0.24,5.11 0.03,0.85 0.67,1.73 1.45,2 0.89,0.31 1.74,0.09 2.38,-0.61 0.48,-0.52 0.62,-1.16 0.65,-1.83 0.04,-1.25 0.06,-2.5 0.12,-3.75 0.02,-0.53 0.08,-1.06 0.2,-1.57 0.28,-1.17 1.05,-1.99 2.04,-2.63 1.56,-1.01 2.63,-2.41 3.36,-4.11 0.68,-1.56 0.74,-3.21 0.73,-4.85 -0.02,-2.04 -0.17,-4.09 -0.32,-6.12 -0.07,-1.02 -0.26,-2.03 -0.44,-3.03 -0.16,-0.84 -1,-1.52 -1.82,-1.57 -0.78,-0.04 -1.52,0.51 -1.89,1.29 -0.37,0.78 -0.1,1.53 -0.03,2.29 0.15,1.94 0.32,3.88 0.42,5.83 0.01,0.36 -0.23,0.8 -0.48,1.09 -0.34,0.39 -0.84,0.41 -1.32,0.2 -0.57,-0.24 -0.79,-0.73 -0.8,-1.32 -0.01,-2.62 0,-5.24 -0.01,-7.86 0,-0.32 -0.04,-0.64 -0.1,-0.95 -0.24,-1.09 -1.12,-1.79 -2.1,-1.7 -1.04,0.09 -1.8,0.98 -1.8,2.12 -0.01,1.35 0,2.7 0,4.04l0 0z"/>
   </g>
  </g>
 </g>
</svg>
